<svg xmlns="http://www.w3.org/2000/svg" viewBox="0 0 62.62 61.51"><defs><style>.cls-1{fill:#fff;}</style></defs><title>Asset 16</title><g id="Layer_2" data-name="Layer 2"><g id="TEXTS"><path class="cls-1" d="M0,58.15V8.49l.19-.57A3.84,3.84,0,0,1,3.79,5.1c2.3-.07,4.6,0,6.9,0,0,0,.07,0,.15.1v.57c0,1.91-.05,3.83,0,5.75a5.72,5.72,0,0,0,.47,2.29,4.47,4.47,0,0,0,4.55,2.54,4.52,4.52,0,0,0,4.79-4.79V5.1H42.44v.68c0,1.94,0,3.87,0,5.81a4.42,4.42,0,0,0,2.68,4.29,6.27,6.27,0,0,0,3.85.27,3.7,3.7,0,0,0,3.3-4c0-2.12,0-4.24,0-6.36V5.11c2.31,0,4.55,0,6.79,0a3.39,3.39,0,0,1,1.33.39,4.18,4.18,0,0,1,2.22,3V58.15a10.91,10.91,0,0,1-.8,1.69,4.11,4.11,0,0,1-3.66,1.67H34.82q-15.18,0-30.36,0A6.26,6.26,0,0,1,2.16,61,4,4,0,0,1,0,58.15Zm4-.68H58.57V21H4Z"/><path class="cls-1" d="M12.84,7.18c0-1.48,0-3,0-4.46A2.48,2.48,0,0,1,15.52.06H16a2.45,2.45,0,0,1,2.65,2.57c0,3,0,6.07,0,9.1A2.47,2.47,0,0,1,16,14.34a6,6,0,0,1-.85,0,2.42,2.42,0,0,1-2.28-2.49C12.83,10.28,12.84,8.73,12.84,7.18Z"/><path class="cls-1" d="M50.28,7.15v4.4a2.47,2.47,0,0,1-2.74,2.71,5.44,5.44,0,0,1-1.21-.08,2.48,2.48,0,0,1-1.88-2.65c0-1.82,0-3.63,0-5.44,0-1.12,0-2.24,0-3.36A2.5,2.5,0,0,1,47.2,0c1.68,0,2.65.56,3,1.84a3.43,3.43,0,0,1,.09.91c0,1.46,0,2.93,0,4.4Z"/><path class="cls-1" d="M13.48,53.61c-1.1,0-2.2,0-3.3,0-.57,0-.81-.22-.81-.8,0-1.91,0-3.83,0-5.74,0-.52.23-.75.73-.75h6.73c.52,0,.78.22.77.77,0,1.92,0,3.83,0,5.75,0,.54-.23.78-.77.77Z"/><path class="cls-1" d="M25.23,53.61h-3.3c-.56,0-.82-.21-.81-.79,0-1.91,0-3.83,0-5.74,0-.52.22-.76.73-.76h6.78c.51,0,.73.24.72.75,0,1.92,0,3.83,0,5.75,0,.59-.28.79-.83.78Z"/><path class="cls-1" d="M37,46.33h3.24c.73,0,.87.14.87.84v5.62c0,.67-.15.82-.84.82H33.71c-.7,0-.84-.13-.84-.81,0-1.9,0-3.79,0-5.69,0-.59.26-.8.82-.79Z"/><path class="cls-1" d="M48.72,53.61H45.48c-.74,0-.86-.12-.86-.84,0-1.88,0-3.75,0-5.63,0-.68.13-.81.83-.81H52c.7,0,.84.15.84.87,0,1.84,0,3.67,0,5.5,0,.78-.13.91-.94.91Z"/><path class="cls-1" d="M37,33.2c-1.12,0-2.24,0-3.36,0-.55,0-.78-.21-.77-.76,0-1.91,0-3.83,0-5.74,0-.55.23-.77.77-.76h6.72c.51,0,.75.2.74.73,0,1.93,0,3.87,0,5.8,0,.52-.23.74-.74.73-1.12,0-2.24,0-3.36,0Z"/><path class="cls-1" d="M48.72,33.2c-1.1,0-2.2,0-3.3,0-.56,0-.82-.18-.81-.77,0-1.92,0-3.83,0-5.75,0-.51.2-.74.72-.74h6.78c.51,0,.73.22.73.74,0,1.91,0,3.83,0,5.74,0,.59-.26.79-.82.79-1.1,0-2.2,0-3.3,0Z"/><path class="cls-1" d="M13.44,43.39h-3.3c-.54,0-.77-.22-.76-.76,0-1.92,0-3.83,0-5.75,0-.55.24-.76.78-.75h6.66c.57,0,.8.23.79.8,0,1.89,0,3.79,0,5.68,0,.59-.25.79-.81.79C15.68,43.38,14.56,43.39,13.44,43.39Z"/><path class="cls-1" d="M25.2,43.39H22c-.72,0-.83-.1-.83-.81,0-1.89,0-3.78,0-5.68,0-.54.21-.78.76-.77H28.6c.56,0,.76.25.75.78,0,1.92,0,3.83,0,5.75,0,.51-.23.74-.74.74Z"/><path class="cls-1" d="M37,43.39H33.64c-.54,0-.78-.2-.78-.76,0-1.91,0-3.82,0-5.74,0-.54.22-.77.76-.76h6.66c.58,0,.81.22.81.79,0,1.9,0,3.79,0,5.69,0,.58-.24.8-.81.79-1.09,0-2.19,0-3.29,0Z"/><path class="cls-1" d="M48.74,36.13c1.1,0,2.2,0,3.3,0,.57,0,.8.22.8.79,0,1.9,0,3.79,0,5.69,0,.58-.24.79-.81.79-2.21,0-4.43,0-6.65,0-.54,0-.78-.2-.77-.76,0-1.91,0-3.83,0-5.74,0-.55.22-.77.77-.76C46.5,36.15,47.62,36.13,48.74,36.13Z"/></g></g></svg>