<svg xmlns="http://www.w3.org/2000/svg" viewBox="0 0 87.5 70"><defs><style>.cls-1{fill:#fff;}</style></defs><title>Asset 18</title><g id="Layer_2" data-name="Layer 2"><g id="TEXTS"><path class="cls-1" d="M87.5,43v.44l-40.26.08-19.42,0a1,1,0,0,0-.43,0,1.76,1.76,0,0,0-.85,1.83,1.82,1.82,0,0,0,1.6,1.29H86.79c.24,0,.47,0,.71,0v.35c0,.24,0,.47-.06.71,0,2.47-.08,4.94-.09,7.41A4.35,4.35,0,0,1,86.91,57c-1.71,3.61-4.64,5.27-8.52,5.46-.69,0-.78,0-.89-.74s-.18-1.27-.33-1.89a10,10,0,0,0-9-7.1,9.73,9.73,0,0,0-9.81,7.35c-.17.74-.24,1.51-.37,2.31h-.45l-15.35.07-13.44,0c-.37,0-.53-.09-.56-.48a13.18,13.18,0,0,0-.23-1.4,9.66,9.66,0,0,0-9.75-7.89,9.56,9.56,0,0,0-9.38,8.09c-.09.55-.18,1.1-.27,1.67l-.76-.11A8.87,8.87,0,0,1,.51,57.17c-.15-.32-.34-.62-.51-.92v-34c.27-.52.53-1.05.8-1.58a8,8,0,0,1,3.71-3.73,9.23,9.23,0,0,1,4.22-1c8,.07,16,.07,24.05.08L67,16a1.25,1.25,0,0,1,.48,0,6.48,6.48,0,0,1,3,2.06c.85,1.25,1.7,2.51,2.44,3.83C75.6,26.88,78.3,31.84,81,36.79a.77.77,0,0,0,.63.46,16.68,16.68,0,0,1,2.3.54,4.64,4.64,0,0,1,3.35,3.8C87.38,42,87.43,42.49,87.5,43ZM63.56,38.36l9.76-.23a.61.61,0,0,0,.67-.74,2.2,2.2,0,0,0-.2-.54q-3.93-7.47-7.85-15a1.24,1.24,0,0,0-1.25-.79l-.27,0H53a2.85,2.85,0,0,0-1,.16c-.33.12-.68.24-.68.75,0,4.59,0,9.19.05,13.79,0,.65.08,1.31.11,2,0,.28.16.38.43.39.52,0,1,.07,1.56.08ZM22.32,32.42v5.2h5.24V32.35h5.25V27.11H27.58V21.85H22.31v.48c0,1.38-.09,2.76-.09,4.15,0,.46-.16.57-.59.56-.7,0-1.39,0-2.09,0H17v5.35Zm-7,14.14v0c1.74,0,3.48,0,5.22,0a6.32,6.32,0,0,0,1.63-.19,1.46,1.46,0,0,0,.81-.61,1.44,1.44,0,0,0-1.19-2.21c-1.06-.07-2.11-.14-3.17-.14-2.87,0-5.74.08-8.6.13a1.37,1.37,0,0,0-1.23.84,1.43,1.43,0,0,0,.07,1.44,1.22,1.22,0,0,0,1.19.73C11.84,46.52,13.59,46.56,15.35,46.56Z"/><path class="cls-1" d="M17.41,70a6.57,6.57,0,0,1-1.48-.28c-2.81-1.26-4.78-3.25-5.14-6.46a7.65,7.65,0,1,1,9.5,6.59,8.31,8.31,0,0,1-1,.15ZM16,62.55A2.74,2.74,0,0,0,18.53,65a2.85,2.85,0,0,0,2.54-2.56,2.93,2.93,0,0,0-2.56-2.5A2.64,2.64,0,0,0,16,62.55Z"/><path class="cls-1" d="M67.14,70a7.53,7.53,0,0,1-2.42-.51A8.06,8.06,0,0,1,60.55,65a3.88,3.88,0,0,1-.23-1c-.17-2.2-.18-4.36,1.37-6.21,2-2.43,4.55-3.58,7.7-2.82a7.33,7.33,0,0,1,5.83,5.78,7.69,7.69,0,0,1-5,8.91,10.45,10.45,0,0,1-1.79.29Zm.64-10a2.55,2.55,0,0,0-2.52,2.43A2.74,2.74,0,0,0,67.82,65a2.71,2.71,0,0,0,2.46-2.51A2.42,2.42,0,0,0,67.78,60Z"/><path class="cls-1" d="M59.73,0V5.69H57.14a1.52,1.52,0,0,1,0-.21V.31c0-.1,0-.21,0-.31Z"/><path class="cls-1" d="M54.29,13.83a4.35,4.35,0,0,1,1.84-4.45,3.84,3.84,0,0,1,4.4-.1,4.41,4.41,0,0,1,2,4.55Z"/><path class="cls-1" d="M47.12,7.27l1.22-1.92c.18-.29.4-.19.61-.07l3.43,1.89,1.07.63c-.32.59-.61,1.15-.93,1.7a.62.62,0,0,1-.84.27s-.06,0-.08,0Z"/><path class="cls-1" d="M69.53,7.11c-.08.08-.14.2-.24.26-1.45.82-2.9,1.64-4.35,2.44a.5.5,0,0,1-.47-.11c-.32-.52-.59-1.06-.86-1.6-.12-.23,0-.38.19-.51q2-1.15,4.07-2.32a.45.45,0,0,1,.7.17c.26.43.54.86.8,1.29A4,4,0,0,1,69.53,7.11Z"/></g></g></svg>