<svg xmlns="http://www.w3.org/2000/svg" viewBox="0 0 61.23 99.21"><defs><style>.cls-1{fill:#3055a3;}</style></defs><title>Asset 15</title><g id="Layer_2" data-name="Layer 2"><g id="TEXTS"><path class="cls-1" d="M42.24,99A40.51,40.51,0,0,1,14.58,88.26C3.11,78-1.54,65.12.44,49.91c.79-6.07,3.81-11.13,7.93-15.57a3.5,3.5,0,0,1,1.16-.82.94.94,0,0,1,.88.17c.27.33.63,1,.5,1.2A14.2,14.2,0,0,1,9.2,37.14a27.38,27.38,0,0,0-6.8,18A40.86,40.86,0,0,0,32.7,95.25c5.19,1.39,10.42,1.45,15.7,1.24A11.37,11.37,0,0,0,58.61,83.35c-.13-.78-.28-1.57-.47-2.35a41,41,0,0,1-.21-17.6A33.75,33.75,0,0,0,58.39,51C57.05,43.37,53,37.44,46.92,32.82c-1.45-1.09-2-1.06-3.24.29S41,35.83,38.83,35.7A5.29,5.29,0,0,1,33.77,32c-.25-.75-.28-1.58-.52-2.34a2.57,2.57,0,0,0-2.87-2A2.36,2.36,0,0,0,28,29.6a16.65,16.65,0,0,1-.71,2.78,5.09,5.09,0,0,1-4.86,3.26.92.92,0,0,1-1-.77,1.76,1.76,0,0,1,.4-1.25A3.22,3.22,0,0,1,23,33a3.24,3.24,0,0,0,2.07-3c.13-1.11.17-2.23.31-3.34a13.56,13.56,0,0,1,3.44-7.26c1.66-1.93,3.73-3,6.38-2.25a4.49,4.49,0,0,0,3.25.07c1.92-.82,2.37-1.71,1.15-3.54a2.75,2.75,0,0,1-.28-3.09A20.5,20.5,0,0,0,40.46,8a1.59,1.59,0,0,0-.68-2.06,1.9,1.9,0,0,0-2.5.69c-.66,1.09-1.17,2.27-1.85,3.35a1.68,1.68,0,0,1-2.52.31c-.36-.3-.52-.81-.87-1.12-1.6-1.38-2.32-1.24-3.35.8-.5,1-1.08,1.51-2.22,1.27a13.21,13.21,0,0,0-2.33-.33A1.21,1.21,0,0,0,22.78,12c0,2-1.31,3.13-2.38,4.52A21.59,21.59,0,0,0,16,28.94a10.31,10.31,0,0,0,1,4.14.92.92,0,0,1-.53,1.18,1.16,1.16,0,0,1-1.31-.19,3.84,3.84,0,0,1-1.51-2.89,12.45,12.45,0,0,1,0-3.34c.33-1.92,0-3.36-1.82-4.46s-2.29-3-1.66-5.05c.55-1.83,2.1-2.87,4.43-3,.63,0,1.27.14,1.91.12a2.89,2.89,0,0,0,2.77-3.59c-.28-1.08-.88-2.06-1.2-3.13C17.11,5.56,19.16,3,22.49,3a2.65,2.65,0,0,1,.94.15c1.61.67,2.68.19,3.54-1.32,1-1.75,2.72-2,4.6-1.8a3.79,3.79,0,0,1,2.92,2.24,1.84,1.84,0,0,0,2.24,1.12c5.7-.87,7.4,1.14,5.77,6.6a3.9,3.9,0,0,0,2.25,5c.58.25,1.26.26,1.84.51,2.93,1.26,3.94,3.85,2.36,6.63a7.53,7.53,0,0,0-1.33,4.43,7.7,7.7,0,0,0,2.83,5.73c9.15,8.12,12.37,18.35,10.06,30.31a41.61,41.61,0,0,0,.09,17.6A22.27,22.27,0,0,1,61.17,85,13.55,13.55,0,0,1,48.75,99,24.54,24.54,0,0,1,42.24,99ZM33.08,19.41a5.16,5.16,0,0,0-1.55.72,15.12,15.12,0,0,0-2.12,2.54c-.76,1.14-.31,2.3,1,2.39,3.4.21,5.23,1.93,5.61,5.28a3.29,3.29,0,0,0,.3.9,2.82,2.82,0,0,0,3,1.85,3,3,0,0,0,2.57-2.45,7.15,7.15,0,0,0-.21-2.8,8.41,8.41,0,0,1-.22-5.56,1.73,1.73,0,0,0-2.25-2.1,6,6,0,0,1-4.58-.42A8.66,8.66,0,0,0,33.08,19.41ZM47,20a1.81,1.81,0,0,0-1.35-1.69c-1.3-.27-2.33.74-2.28,2.25,0,.79.54,1.09,1.21,1.14A2.07,2.07,0,0,0,47,20ZM32.14,3.89a1.67,1.67,0,0,0-1.66-1.28c-1.1.08-1.71,1-1.58,2.36.06.59.11,1.29,1,1.27A2.17,2.17,0,0,0,32.14,3.89ZM15.59,19.09a1.16,1.16,0,0,0-1.32-.94,1.76,1.76,0,0,0-1.76,1.72,1.51,1.51,0,0,0,1.38,1.52A2.09,2.09,0,0,0,15.59,19.09Z"/></g></g></svg>