<svg xmlns="http://www.w3.org/2000/svg" viewBox="0 0 59.57 70"><defs><style>.cls-1{fill:#fff;}</style></defs><title>Asset 17</title><g id="Layer_2" data-name="Layer 2"><g id="TEXTS"><path class="cls-1" d="M7.78,70l-1-.06-4.2-.22A2.15,2.15,0,0,1,1.27,69,4.07,4.07,0,0,1,0,65.66c.11-2.78.23-5.56.4-8.34a39.56,39.56,0,0,1,1-6.77,25.15,25.15,0,0,1,1-3.19,4.92,4.92,0,0,1,2.39-2.74c2-1,4.05-2,6.09-3,.78-.38,1.58-.72,2.37-1.07l.48-.2v2.32q0,6.21,0,12.43a.41.41,0,0,1-.31.46,4.36,4.36,0,0,0-2.85,2.83,4.3,4.3,0,0,0,4.29,5.56,4.26,4.26,0,0,0,4-3.38,4.15,4.15,0,0,0-2.32-4.68,1.32,1.32,0,0,1-.89-1.45c0-4.92,0-9.84,0-14.75a.48.48,0,0,1,.31-.51c1.17-.67,2.32-1.35,3.48-2,.19-.12.38-.24.58-.34.42-.21.63-.15.84.27.35.68.68,1.36,1,2.05l4.92,10.33a2.47,2.47,0,0,0,.42.63c.14-.78.29-1.55.43-2.33s.19-1.27.32-1.9a.57.57,0,0,0-.18-.57,4,4,0,0,1-1.15-2.14,4.2,4.2,0,0,1,0-1.37,2,2,0,0,1,1.86-1.84,11.27,11.27,0,0,1,2.66,0A2.34,2.34,0,0,1,33,42.74a4.34,4.34,0,0,1-1.21,2.49.62.62,0,0,0-.19.6c.24,1.35.48,2.69.71,4,0,.06,0,.11.07.26.14-.27.26-.46.36-.67L38,38.52c.23-.48.46-1,.71-1.44s.44-.55.9-.28,1.11.7,1.67,1c.75.44,1.51.87,2.27,1.29a.37.37,0,0,1,.25.37c0,1.19,0,2.38,0,3.57a.39.39,0,0,1-.19.31c-2.79,1.05-4.12,3.25-4.72,6-.72,3.35-1.39,6.7-2.11,10.05a2.58,2.58,0,0,0,1.05,2.78,8,8,0,0,0,1,.59,14.47,14.47,0,0,1,1.38.79,1.68,1.68,0,0,0,2.72-1,1.74,1.74,0,0,0-1.85-1.92,2.64,2.64,0,0,0-.66.25,1.35,1.35,0,0,1-1.79-.69.82.82,0,0,1,0-.38c.77-3.6,1.52-7.19,2.31-10.78a6,6,0,0,1,1.52-2.75,3.06,3.06,0,0,1,4.89.14,7.64,7.64,0,0,1,1.58,3.47c.67,3.09,1.32,6.18,2,9.27,0,.14,0,.29.06.43a1,1,0,0,1-.58,1.28,1,1,0,0,1-1.11,0,1.68,1.68,0,0,0-2.55,1.16,1.55,1.55,0,0,0,.78,1.6,1.82,1.82,0,0,0,1.86-.08,7.52,7.52,0,0,1,1.38-.78,3.15,3.15,0,0,0,2.14-2.38,4.28,4.28,0,0,0-.1-1.55c-.74-3.49-1.49-7-2.28-10.45a8.12,8.12,0,0,0-1.75-3.35,5.86,5.86,0,0,0-2.66-1.74c-.21-.08-.31-.17-.31-.39V40.36a1.1,1.1,0,0,1,.24,0c2.68,1.17,5.38,2.29,7.94,3.71a2.07,2.07,0,0,0,.25.15A6.91,6.91,0,0,1,57.86,49a43.43,43.43,0,0,1,1.19,6.88c.32,3.25.5,6.5.52,9.77a10,10,0,0,1-.08,1.21,3.55,3.55,0,0,1-.69,1.58,3.41,3.41,0,0,1-3.06,1.39c-1.18,0-2.36.06-3.54.09l-.42,0Z"/><path class="cls-1" d="M31.5,0c.57.11,1.15.18,1.71.33a4.75,4.75,0,0,1,3.42,3,.51.51,0,0,0,.34.3c2.71.49,4.1,2.39,5.1,4.72a15.7,15.7,0,0,1,1,5.8q.06,1.79.15,3.57a.81.81,0,0,0,0,.31,5.78,5.78,0,0,1,0,3.85,7.61,7.61,0,0,1-2.18,3.89,4.16,4.16,0,0,0-1,1.63,16.77,16.77,0,0,1-4,6.24,9.61,9.61,0,0,1-5.27,2.73,7.63,7.63,0,0,1-5-1.1,13.88,13.88,0,0,1-5.23-5.67c-.44-.83-.79-1.7-1.15-2.57a3.58,3.58,0,0,0-.94-1.36,7.42,7.42,0,0,1-2-3.45,7.78,7.78,0,0,1-.43-3,1.44,1.44,0,0,1,.13-.62,4.38,4.38,0,0,0,.35-2.08c.05-1.32,0-2.65.16-4a13.25,13.25,0,0,1,4.58-8.73A15.38,15.38,0,0,1,28.41.19c.38-.08.77-.13,1.16-.19Zm8.28,17.67c0-.54,0-1.07,0-1.61a9.3,9.3,0,0,0-1.6-4.95,4.54,4.54,0,0,0-3-2.08,7.18,7.18,0,0,0-2.73.15,11.68,11.68,0,0,1-4.25.2c-.8-.11-1.59-.32-2.39-.41a4.35,4.35,0,0,0-4.06,1.69,8.43,8.43,0,0,0-1.81,4.5A27,27,0,0,0,20,21.32,21.25,21.25,0,0,0,22.36,29a11.4,11.4,0,0,0,4.88,4.91,5,5,0,0,0,3,.64,8.29,8.29,0,0,0,4.8-2.61,15.47,15.47,0,0,0,3.36-5.58A25.77,25.77,0,0,0,39.78,17.67Z"/></g></g></svg>