<svg xmlns="http://www.w3.org/2000/svg" width="103.188" height="103.537" viewBox="0 0 103.188 103.537">
  <g id="_Group_" data-name="&lt;Group&gt;" transform="translate(1.511 1.548)">
    <g id="_Group_2" data-name="&lt;Group&gt;">
      <path id="_Path_" data-name="&lt;Path&gt;" d="M15.11,40.43a5,5,0,0,0,4.47-7.14A5,5,0,0,0,22.71,33a5.43,5.43,0,0,0,3.24-3.81,5.23,5.23,0,0,0-.22-2.94h1.03c4.87-.45,6.21-6.87,2.12-9.55-1.9-1.24-3.68-3.06-3.8-5.54" fill="none" stroke="#3055a3" stroke-linecap="round" stroke-linejoin="round" stroke-width="3"/>
      <path id="_Path_2" data-name="&lt;Path&gt;" d="M26.06,26.29a11.38,11.38,0,0,1-6.36-6.53" fill="none" stroke="#3055a3" stroke-linecap="round" stroke-linejoin="round" stroke-width="3"/>
      <path id="_Path_3" data-name="&lt;Path&gt;" d="M29,45.47a15.16,15.16,0,0,0-15.78,3.74,10.86,10.86,0,0,1-5,2.83,8.87,8.87,0,0,1-5.08-.2" fill="none" stroke="#3055a3" stroke-linecap="round" stroke-linejoin="round" stroke-width="3"/>
      <path id="_Path_4" data-name="&lt;Path&gt;" d="M24.81,31.5a9.43,9.43,0,0,1,7.46,8.06" fill="none" stroke="#3055a3" stroke-linecap="round" stroke-linejoin="round" stroke-width="3"/>
      <path id="_Path_5" data-name="&lt;Path&gt;" d="M19.58,33.29a16.16,16.16,0,0,1-5-3.95" fill="none" stroke="#3055a3" stroke-linecap="round" stroke-linejoin="round" stroke-width="3"/>
      <path id="_Path_6" data-name="&lt;Path&gt;" d="M82.1,15.92a7.42,7.42,0,0,1-6,4.28s2.78,6.46-1.1,11.74a10.28,10.28,0,0,1-3.15,2.77c-2.25,1.31-6.43,3-10.85.93L56.22,33.2a7.16,7.16,0,0,0-10.17,4.5v.19s-6.2-3.32-11.79.09a12.71,12.71,0,0,0-5.5,10.19,6.92,6.92,0,0,0,3.17,5.93,5.38,5.38,0,0,0,4.13.7c7-1.66,5-10.22.06-9.45" fill="none" stroke="#3055a3" stroke-linecap="round" stroke-linejoin="round" stroke-width="3"/>
      <path id="_Path_7" data-name="&lt;Path&gt;" d="M92.13,17S88.84,29.06,76.84,27.74" fill="none" stroke="#3055a3" stroke-linecap="round" stroke-linejoin="round" stroke-width="3"/>
      <path id="_Path_8" data-name="&lt;Path&gt;" d="M79.61,45.36a6.77,6.77,0,0,0,12-4.29,6.851,6.851,0,0,0,0-.77h0A7.23,7.23,0,0,0,97.4,28.71a6.76,6.76,0,0,0-5.26-12,6.77,6.77,0,0,0-9.26-7.33A6.76,6.76,0,0,0,71.81,5.21a6.76,6.76,0,0,0-11.35-2,6.76,6.76,0,0,0-11.92.68A6.77,6.77,0,0,0,36.36,6.13a6.76,6.76,0,0,0-11.26,5A6.76,6.76,0,0,0,16,19.1a6.77,6.77,0,0,0-7.08,9.37A6.76,6.76,0,0,0,4.7,39.65,6.77,6.77,0,0,0,3.2,51.84,6.76,6.76,0,0,0,9.29,63.52,6.31,6.31,0,0,0,21.7,64.9,6.77,6.77,0,0,0,33.78,64a6.76,6.76,0,0,0,11.84-.82,6.76,6.76,0,0,0,11-.51A6.11,6.11,0,0,0,66.7,58.38h.67a6.77,6.77,0,0,0,6.77-6.77S73.48,45.36,79.61,45.36Z" fill="none" stroke="#3055a3" stroke-linecap="round" stroke-linejoin="round" stroke-width="3"/>
      <path id="_Path_9" data-name="&lt;Path&gt;" d="M79.61,45.36c1.45-3.72-.55-10.08-6-11.86" fill="none" stroke="#3055a3" stroke-linecap="round" stroke-linejoin="round" stroke-width="3"/>
      <path id="_Path_10" data-name="&lt;Path&gt;" d="M91.71,40.39c-8.3-3.06-5.68-9.66-2.55-10.61" fill="none" stroke="#3055a3" stroke-linecap="round" stroke-linejoin="round" stroke-width="3"/>
      <path id="_Path_11" data-name="&lt;Path&gt;" d="M45.62,63.15c-2.87-4.33-.64-12.93,5.67-12.44A4.11,4.11,0,0,1,55,55.43a3.84,3.84,0,0,1-2.1,2.77" fill="none" stroke="#3055a3" stroke-linecap="round" stroke-linejoin="round" stroke-width="3"/>
      <path id="_Path_12" data-name="&lt;Path&gt;" d="M46,37.89s3.3,6.65,12.93,7" fill="none" stroke="#3055a3" stroke-linecap="round" stroke-linejoin="round" stroke-width="3"/>
      <path id="_Path_13" data-name="&lt;Path&gt;" d="M48.47,3.58a17.26,17.26,0,0,0,1.23,8.15,10,10,0,0,0,5.88,5.55" fill="none" stroke="#3055a3" stroke-linecap="round" stroke-linejoin="round" stroke-width="3"/>
      <path id="_Path_14" data-name="&lt;Path&gt;" d="M36.36,6.13s3.83,3.34,5,7.62a7.27,7.27,0,0,1-4.32,8.68" fill="none" stroke="#3055a3" stroke-linecap="round" stroke-linejoin="round" stroke-width="3"/>
      <path id="_Path_15" data-name="&lt;Path&gt;" d="M60.45,3.25s-4.71,5.26,3.91,12c0,0,6.43,4.9,4.46,9.65a5.69,5.69,0,0,1-6.38,3.29,9,9,0,0,1-4-2.07,11.76,11.76,0,0,0-15.69.09A5.309,5.309,0,0,0,42,27h0a13.05,13.05,0,0,0-3.41,9.56" fill="none" stroke="#3055a3" stroke-linecap="round" stroke-linejoin="round" stroke-width="3"/>
      <path id="_Path_16" data-name="&lt;Path&gt;" d="M71.81,5.21a4.7,4.7,0,0,0-1,5.22s1.87,4,5.6,2.14" fill="none" stroke="#3055a3" stroke-linecap="round" stroke-linejoin="round" stroke-width="3"/>
      <path id="_Path_17" data-name="&lt;Path&gt;" d="M11.66,50.52a5.87,5.87,0,0,1,3.5,2.38,5.48,5.48,0,0,1,.17,5.51,10.51,10.51,0,0,1-6,5.11" fill="none" stroke="#3055a3" stroke-linecap="round" stroke-linejoin="round" stroke-width="3"/>
      <path id="_Path_18" data-name="&lt;Path&gt;" d="M29.88,52.15S18.61,56.34,21.7,64.9" fill="none" stroke="#3055a3" stroke-linecap="round" stroke-linejoin="round" stroke-width="3"/>
      <path id="_Path_19" data-name="&lt;Path&gt;" d="M66.72,58.35S61,55.2,65.48,47.81c1.65-2.72,4.24-6.45,2.14-11.34" fill="none" stroke="#3055a3" stroke-linecap="round" stroke-linejoin="round" stroke-width="3"/>
    </g>
    <path id="_Path_20" data-name="&lt;Path&gt;" d="M79.61,45.36a6.77,6.77,0,0,0,12-4.29,6.851,6.851,0,0,0,0-.77h0A7.23,7.23,0,0,0,97.4,28.71a6.76,6.76,0,0,0-5.26-12,6.77,6.77,0,0,0-9.26-7.33A6.76,6.76,0,0,0,71.81,5.21a6.76,6.76,0,0,0-11.35-2,6.76,6.76,0,0,0-11.92.68A6.77,6.77,0,0,0,36.36,6.13a6.76,6.76,0,0,0-11.26,5A6.76,6.76,0,0,0,16,19.1a6.77,6.77,0,0,0-7.08,9.37A6.76,6.76,0,0,0,4.7,39.65,6.77,6.77,0,0,0,3.2,51.84,6.76,6.76,0,0,0,9.29,63.52,6.31,6.31,0,0,0,21.7,64.9,6.77,6.77,0,0,0,33.78,64a6.76,6.76,0,0,0,11.84-.82,6.76,6.76,0,0,0,11-.51A6.11,6.11,0,0,0,66.7,58.38h.67a6.77,6.77,0,0,0,6.77-6.77S73.48,45.36,79.61,45.36Z" fill="none" stroke="#3055a3" stroke-linecap="round" stroke-linejoin="round" stroke-width="3"/>
    <path id="_Path_21" data-name="&lt;Path&gt;" d="M50.24,65.71S45.44,76.25,50,100" fill="none" stroke="#3055a3" stroke-linecap="round" stroke-linejoin="round" stroke-width="3"/>
    <path id="_Path_22" data-name="&lt;Path&gt;" d="M61,100c-7.13-15.5,0-23.46,0-23.46,6.52-8.3,2.62-13.23,2.62-13.23" fill="none" stroke="#3055a3" stroke-linecap="round" stroke-linejoin="round" stroke-width="3"/>
    <path id="_Path_23" data-name="&lt;Path&gt;" d="M10.8,67.39s-.14.17-.35.49c-3.14,4.8-1.77,11.46,4.66,14.24a19.91,19.91,0,0,0,24.06-7.49" fill="none" stroke="#3055a3" stroke-linecap="round" stroke-linejoin="round" stroke-width="3"/>
    <path id="_Path_24" data-name="&lt;Path&gt;" d="M33.58,80.29s6,7.32,14.46,1.79" fill="none" stroke="#3055a3" stroke-linecap="round" stroke-linejoin="round" stroke-width="3"/>
  </g>
</svg>
