<svg xmlns="http://www.w3.org/2000/svg" viewBox="0 0 99.56 99.15"><defs><style>.cls-1{fill:#3055a3;}</style></defs><title>Asset 13</title><g id="Layer_2" data-name="Layer 2"><g id="TEXTS"><path class="cls-1" d="M49.85.06c25.84-.93,49.69,21.58,49.71,49.6,0,27.44-24.13,50.82-50.4,49.43C24.19,99.84,0,77.73,0,49.4,0,21.29,24.38-1.29,49.85.06ZM56.1,77.31c0,4.31,0,8.63,0,13,0,1.12,0,2.24.15,3.35a1.72,1.72,0,0,0,1.91,1.7,22.52,22.52,0,0,0,4.24-.65C72.73,92,80.7,85.94,87.31,77.72c11.11-13.83,12.32-34.46,4.29-49.8a30.21,30.21,0,0,0-4.54-6.74A1.84,1.84,0,0,0,84.14,21a50.49,50.49,0,0,0-3.7,3.76c-2.09,2.41-4.12,4.88-6.16,7.35-.69.83-1.12,2.07-2.59,1.52-1-.35-.83-1.51.6-3.2C75.49,26.68,78.78,23,82,19.23c1.52-1.77,1.54-2.39-.14-4A44,44,0,0,0,61.13,3.82,51.09,51.09,0,0,0,44,2.94a42.73,42.73,0,0,0-23.86,10.2c-1.12.94-1.17,1.67-.2,2.86,2.33,2.85,4.71,5.65,7.07,8.47a14.29,14.29,0,0,1,1.23,1.47c.48.78,1.22,1.57.42,2.57-.49.62-1.48.38-2.4-.68s-2-2.49-3-3.71c-1.66-1.94-3.28-3.92-5.07-5.74-1.33-1.36-2.27-1.24-3.68.15a22.45,22.45,0,0,0-1.58,1.79C-5,42.57.26,79.62,32.55,93.34a50.75,50.75,0,0,0,10.66,2.74c2.76.52,3.49-.15,3.61-2.84,0-.8,0-1.6,0-2.4,0-8-.13-16,0-24A23.76,23.76,0,0,0,43.61,54c-.81-1.38-1.66-2.74-2.45-4.13a5.38,5.38,0,0,1-.73-1.74A1.77,1.77,0,0,1,41,46.93a.91.91,0,0,1,1.29.06,11.41,11.41,0,0,1,1.67,2.31,3.62,3.62,0,0,0,3.94,2c1.67-.14,2.15-.57,2.27-2.4.1-1.59.14-3.18.28-4.76.05-.52.58-.74,1.08-.74s1,.21,1.09.73a32.17,32.17,0,0,1,.24,3.8c0,2.93.74,3.92,4.32,2.49a4.72,4.72,0,0,0,2.13-1.87c1-1.45,2-2.92,3-4.37.45-.65.93-1.3,1.42-1.92s1-.92,1.65-.49a1.41,1.41,0,0,1,.35,2.09C65,45,64.23,46,63.55,47.11c-1.72,2.7-3.41,5.4-5.13,8.1a15.27,15.27,0,0,0-2.33,8.66C56.14,68.35,56.1,72.83,56.1,77.31Zm-1-23c-1.84-.75-3.71-.3-5.57,0-1.51.27-2,.92-1.49,2.31,1.52,4,1.33,8.13,1.33,12.26,0,7.49,0,15,0,22.46a20.88,20.88,0,0,0,.26,3.79c.15.85.93,1.2,1.82,1.2s1.66-.28,1.83-1.15a17.49,17.49,0,0,0,.22-3.32c0-7.64,0-15.29,0-22.93,0-4.77-.18-9.54,1.67-14.09C55.2,54.74,55.11,54.56,55.08,54.3Z"/><path class="cls-1" d="M51.45,31.59a1.19,1.19,0,0,1,1.06,1.25c0,.76-.65.95-1.32.89a.85.85,0,0,1-.82-.92A1.14,1.14,0,0,1,51.45,31.59Z"/><path class="cls-1" d="M57.56,34.34c0,.64-.22,1.17-.94,1.22a1,1,0,0,1-1.12-1.05,1.38,1.38,0,0,1,.72-1C56.89,33.22,57.34,33.64,57.56,34.34Z"/><path class="cls-1" d="M47.3,34.41c0,.67-.28,1.19-1,1.18a1,1,0,0,1-1-1.18,1.4,1.4,0,0,1,.78-.93C46.77,33.29,47.19,33.72,47.3,34.41Z"/><path class="cls-1" d="M56.41,30.62a1.06,1.06,0,0,1-.9-1.34.88.88,0,0,1,.91-.85,1,1,0,0,1,1.18,1.09A1.11,1.11,0,0,1,56.41,30.62Z"/><path class="cls-1" d="M47.31,29.4c-.05.65-.28,1.23-1,1.22s-1-.58-1-1.23a.89.89,0,0,1,.8-.93A.94.94,0,0,1,47.31,29.4Z"/><path class="cls-1" d="M57.55,39.55a1,1,0,0,1-1,.87,1,1,0,0,1-1-1.21.94.94,0,0,1,.95-.91A1.11,1.11,0,0,1,57.55,39.55Z"/><path class="cls-1" d="M47.31,39.43a.87.87,0,0,1-.84,1c-.73.06-1.23-.33-1.1-1.07a1.39,1.39,0,0,1,.83-1C46.94,38.22,47.23,38.81,47.31,39.43Z"/></g></g></svg>