<svg xmlns="http://www.w3.org/2000/svg" width="103.001" height="103.006" viewBox="0 0 103.001 103.006">
  <path id="ICON_Cardiology" d="M74.53,64.15C62.19,76.18,50,88.15,50,100,50,76,0,51.5,0,27A26.79,26.79,0,0,1,25,.05C42.53-1.1,50.2,16.61,50.2,16.61S58.05-1,75.55.32A26.84,26.84,0,0,1,99.62,21a15.4,15.4,0,0,1,.38,3.48c0,11-6.79,18.82-15.23,18.82h-.14L80.31,32.36l-3,10.95-3,10.95L69.93,43.3H63.46L59.14,32.36l-3,10.95-3,10.95L48.76,43.3H38.89" transform="translate(1.501 1.506)" fill="none" stroke="#3055a3" stroke-linecap="round" stroke-linejoin="round" stroke-width="3"/>
</svg>
