<svg xmlns="http://www.w3.org/2000/svg" width="103" height="109.224" viewBox="0 0 103 109.224">
  <g id="ICON_Epidemiology" transform="translate(1.5 4.612)">
    <path id="Path_44" data-name="Path 44" d="M71.09,45.3a44.1,44.1,0,0,0-45,0A8.77,8.77,0,0,0,24.44,59l.13.13A8.83,8.83,0,0,0,35.3,60.45a26.34,26.34,0,0,1,26.58,0,8.8,8.8,0,0,0,10.7-1.31l.16-.14a8.74,8.74,0,0,0-1.65-13.7Z" fill="none" stroke="#3055a3" stroke-linecap="round" stroke-linejoin="round" stroke-width="3"/>
    <path id="Path_45" data-name="Path 45" d="M68.87,44.06a12.13,12.13,0,0,1,3.47-4" fill="none" stroke="#3055a3" stroke-linecap="round" stroke-linejoin="round" stroke-width="3"/>
    <path id="Path_46" data-name="Path 46" d="M75.31,52.72A10.63,10.63,0,0,1,82,52.34" fill="none" stroke="#3055a3" stroke-linecap="round" stroke-linejoin="round" stroke-width="3"/>
    <path id="Path_47" data-name="Path 47" d="M56.81,39.89A14.19,14.19,0,0,1,60.13,34" fill="none" stroke="#3055a3" stroke-linecap="round" stroke-linejoin="round" stroke-width="3"/>
    <path id="Path_48" data-name="Path 48" d="M45,39.27A14.78,14.78,0,0,1,44.71,32" fill="none" stroke="#3055a3" stroke-linecap="round" stroke-linejoin="round" stroke-width="3"/>
    <path id="Path_49" data-name="Path 49" d="M33,41.94a17,17,0,0,1-2.26-6.53" fill="none" stroke="#3055a3" stroke-linecap="round" stroke-linejoin="round" stroke-width="3"/>
    <path id="Path_50" data-name="Path 50" d="M23.07,48.31s-3.42-2.21-4.35-5" fill="none" stroke="#3055a3" stroke-linecap="round" stroke-linejoin="round" stroke-width="3"/>
    <path id="Path_51" data-name="Path 51" d="M18,59.92a39.33,39.33,0,0,0,5.21-2.43" fill="none" stroke="#3055a3" stroke-linecap="round" stroke-linejoin="round" stroke-width="3"/>
    <path id="Path_52" data-name="Path 52" d="M32.22,61.56A22.28,22.28,0,0,1,31,68" fill="none" stroke="#3055a3" stroke-linecap="round" stroke-linejoin="round" stroke-width="3"/>
    <line id="Line_16" data-name="Line 16" x2="0.43" y2="7.73" transform="translate(45.17 57.07)" fill="none" stroke="#3055a3" stroke-linecap="round" stroke-linejoin="round" stroke-width="3"/>
    <path id="Path_53" data-name="Path 53" d="M58.86,58.94a10.94,10.94,0,0,1,.92,6.72" fill="none" stroke="#3055a3" stroke-linecap="round" stroke-linejoin="round" stroke-width="3"/>
    <path id="Path_54" data-name="Path 54" d="M70.8,60.51a18.19,18.19,0,0,1,2.89,5.34" fill="none" stroke="#3055a3" stroke-linecap="round" stroke-linejoin="round" stroke-width="3"/>
    <line id="Line_17" data-name="Line 17" x2="25.78" transform="translate(37.11 6.01)" fill="none" stroke="#3055a3" stroke-linecap="round" stroke-linejoin="round" stroke-width="3"/>
    <line id="Line_18" data-name="Line 18" y1="15.79" x2="16.48" transform="translate(10.38 10.25)" fill="none" stroke="#3055a3" stroke-linecap="round" stroke-linejoin="round" stroke-width="3"/>
    <circle id="Ellipse_2" data-name="Ellipse 2" cx="6.01" cy="6.01" r="6.01" transform="translate(22.601 6.009) rotate(-45)" stroke-width="3" stroke="#3055a3" stroke-linecap="round" stroke-linejoin="round" fill="none"/>
    <circle id="Ellipse_3" data-name="Ellipse 3" cx="6.01" cy="6.01" r="6.01" transform="translate(0 24.14)" stroke-width="3" stroke="#3055a3" stroke-linecap="round" stroke-linejoin="round" fill="none"/>
    <line id="Line_19" data-name="Line 19" x1="16.48" y1="15.79" transform="translate(73.14 10.25)" fill="none" stroke="#3055a3" stroke-linecap="round" stroke-linejoin="round" stroke-width="3"/>
    <circle id="Ellipse_4" data-name="Ellipse 4" cx="6.01" cy="6.01" r="6.01" transform="translate(60.4 6.01) rotate(-45)" stroke-width="3" stroke="#3055a3" stroke-linecap="round" stroke-linejoin="round" fill="none"/>
    <circle id="Ellipse_5" data-name="Ellipse 5" cx="6.01" cy="6.01" r="6.01" transform="translate(87.98 24.14)" stroke-width="3" stroke="#3055a3" stroke-linecap="round" stroke-linejoin="round" fill="none"/>
    <line id="Line_20" data-name="Line 20" x2="25.78" transform="translate(37.11 93.99)" fill="none" stroke="#3055a3" stroke-linecap="round" stroke-linejoin="round" stroke-width="3"/>
    <line id="Line_21" data-name="Line 21" x2="16.48" y2="15.79" transform="translate(10.38 73.96)" fill="none" stroke="#3055a3" stroke-linecap="round" stroke-linejoin="round" stroke-width="3"/>
    <circle id="Ellipse_6" data-name="Ellipse 6" cx="6.01" cy="6.01" r="6.01" transform="translate(22.603 93.99) rotate(-45)" stroke-width="3" stroke="#3055a3" stroke-linecap="round" stroke-linejoin="round" fill="none"/>
    <circle id="Ellipse_7" data-name="Ellipse 7" cx="6.01" cy="6.01" r="6.01" transform="translate(0 63.84)" stroke-width="3" stroke="#3055a3" stroke-linecap="round" stroke-linejoin="round" fill="none"/>
    <line id="Line_22" data-name="Line 22" x1="16.48" y2="15.79" transform="translate(73.14 73.96)" fill="none" stroke="#3055a3" stroke-linecap="round" stroke-linejoin="round" stroke-width="3"/>
    <circle id="Ellipse_8" data-name="Ellipse 8" cx="6.01" cy="6.01" r="6.01" transform="translate(60.402 93.991) rotate(-45)" stroke-width="3" stroke="#3055a3" stroke-linecap="round" stroke-linejoin="round" fill="none"/>
    <circle id="Ellipse_9" data-name="Ellipse 9" cx="6.01" cy="6.01" r="6.01" transform="translate(87.98 63.84)" stroke-width="3" stroke="#3055a3" stroke-linecap="round" stroke-linejoin="round" fill="none"/>
    <line id="Line_23" data-name="Line 23" y2="27.68" transform="translate(6.01 36.16)" fill="none" stroke="#3055a3" stroke-linecap="round" stroke-linejoin="round" stroke-width="3"/>
    <line id="Line_24" data-name="Line 24" y1="27.68" transform="translate(93.99 36.16)" fill="none" stroke="#3055a3" stroke-linecap="round" stroke-linejoin="round" stroke-width="3"/>
    <line id="Line_25" data-name="Line 25" x2="5.75" y2="5.75" transform="translate(35.35 10.25)" fill="none" stroke="#3055a3" stroke-linecap="round" stroke-linejoin="round" stroke-width="3"/>
    <line id="Line_26" data-name="Line 26" x1="5.75" y2="5.75" transform="translate(58.9 10.25)" fill="none" stroke="#3055a3" stroke-linecap="round" stroke-linejoin="round" stroke-width="3"/>
    <line id="Line_27" data-name="Line 27" y1="5.75" x2="5.75" transform="translate(35.35 84)" fill="none" stroke="#3055a3" stroke-linecap="round" stroke-linejoin="round" stroke-width="3"/>
    <line id="Line_28" data-name="Line 28" x1="5.75" y1="5.75" transform="translate(58.9 84)" fill="none" stroke="#3055a3" stroke-linecap="round" stroke-linejoin="round" stroke-width="3"/>
    <circle id="Ellipse_10" data-name="Ellipse 10" cx="0.5" cy="0.5" r="0.5" transform="translate(30.6 5.51)" stroke-width="3" stroke="#3055a3" stroke-linecap="round" stroke-linejoin="round" fill="none"/>
    <circle id="Ellipse_11" data-name="Ellipse 11" cx="0.5" cy="0.5" r="0.5" transform="translate(93.49 29.55)" stroke-width="3" stroke="#3055a3" stroke-linecap="round" stroke-linejoin="round" fill="none"/>
    <circle id="Ellipse_12" data-name="Ellipse 12" cx="0.5" cy="0.5" r="0.5" transform="translate(68.4 93.49)" stroke-width="3" stroke="#3055a3" stroke-linecap="round" stroke-linejoin="round" fill="none"/>
    <circle id="Ellipse_13" data-name="Ellipse 13" cx="0.5" cy="0.5" r="0.5" transform="translate(5.51 69.35)" stroke-width="3" stroke="#3055a3" stroke-linecap="round" stroke-linejoin="round" fill="none"/>
  </g>
</svg>
