<svg xmlns="http://www.w3.org/2000/svg" width="103.006" height="103.02" viewBox="0 0 103.006 103.02">
  <g id="ICON_Gastroenterology" transform="translate(1.5 1.5)">
    <path id="Path_59" data-name="Path 59" d="M55.73,0V1.42a29.69,29.69,0,0,0,3.46,14.27,3.39,3.39,0,0,0,6.31-.54c1.16-4,4-8.08,10.66-8.42a17.93,17.93,0,0,1,10.4,2.75c6.3,4,16.82,16,12.36,38.45A57.821,57.821,0,0,1,97,55.31S92.17,73.44,76.66,85.55a40.273,40.273,0,0,1-4.93,3.24c-16.8,9.53-36.23,5.91-49.6-8-1.29-1.35-2.59-2.81-3.86-4.4a3.31,3.31,0,0,0-5.88,1.75c-.39,4-.31,18.32-.31,21.88" fill="none" stroke="#3055a3" stroke-linecap="round" stroke-linejoin="round" stroke-width="3"/>
    <path id="Path_60" data-name="Path 60" d="M91,28.58c-2.19-8.23-7.44-11.82-8.3-12.35a10.5,10.5,0,0,0-5.53-1.61" fill="none" stroke="#3055a3" stroke-linecap="round" stroke-linejoin="round" stroke-width="3"/>
    <path id="Path_61" data-name="Path 61" d="M19.42,44.33v12a6,6,0,0,0,3,4.84,32.13,32.13,0,0,0,8.32,3.92c12.54,3.23,23.14-4.27,24.34-16,.92-8.79-3.65-16.65-3.65-16.65A70.72,70.72,0,0,1,43.31,3.57V0" fill="none" stroke="#3055a3" stroke-linecap="round" stroke-linejoin="round" stroke-width="3"/>
    <path id="Path_62" data-name="Path 62" d="M0,100V75.51A16.91,16.91,0,0,1,7.31,61.77a5.63,5.63,0,0,0,2.34-4.54V44.33" fill="none" stroke="#3055a3" stroke-linecap="round" stroke-linejoin="round" stroke-width="3"/>
  </g>
</svg>
