<svg xmlns="http://www.w3.org/2000/svg" width="103.514" height="103.01" viewBox="0 0 103.514 103.01">
  <g id="ICON_Ophthalmology" transform="translate(1.5 1.5)">
    <path id="Path_100" data-name="Path 100" d="M100,94.92,87.1,88.45a8,8,0,0,0-9.05,1.39,37.6,37.6,0,0,1-54.39-3.13h0a27.92,27.92,0,0,1,0-48.64" fill="none" stroke="#3055a3" stroke-linecap="round" stroke-linejoin="round" stroke-width="3"/>
    <path id="Path_101" data-name="Path 101" d="M23.65,38.07A37.61,37.61,0,0,1,89.4,68.85a7.85,7.85,0,0,0,4.24,8.34l6.36,3.2" fill="none" stroke="#3055a3" stroke-linecap="round" stroke-linejoin="round" stroke-width="3"/>
    <path id="Path_102" data-name="Path 102" d="M51.59,91.6A30,30,0,0,0,71.86,39.36" fill="none" stroke="#3055a3" stroke-linecap="round" stroke-linejoin="round" stroke-width="3"/>
    <path id="Path_103" data-name="Path 103" d="M34.95,47.17s5.63,5.62,5.63,15.64S34.39,81,26.75,81h0V52.46A19.43,19.43,0,0,1,35.5,36.07a31,31,0,0,1,18-5,31.41,31.41,0,0,1,11.11,2.66" fill="none" stroke="#3055a3" stroke-linecap="round" stroke-linejoin="round" stroke-width="3"/>
    <line id="Line_47" data-name="Line 47" x2="10.09" y2="4.85" transform="translate(89.91 82.63)" fill="none" stroke="#3055a3" stroke-linecap="round" stroke-linejoin="round" stroke-width="3"/>
    <path id="Path_104" data-name="Path 104" d="M24.15,22.09A12.075,12.075,0,1,1,0,22.09C0,15.42,12.07,0,12.07,0S24.15,15.42,24.15,22.09Z" fill="none" stroke="#3055a3" stroke-linecap="round" stroke-linejoin="round" stroke-width="3"/>
  </g>
</svg>
