<svg xmlns="http://www.w3.org/2000/svg" width="103" height="103" viewBox="0 0 103 103">
  <g id="ICON_Family_doctor" data-name="ICON_Family doctor" transform="translate(1.5 1.5)">
    <path id="Path_55" data-name="Path 55" d="M65.47,67.31H53.13V54.97H46.87V67.31H34.53v6.27H46.87V85.92h6.26V73.58H65.47Z" fill="none" stroke="#3055a3" stroke-linecap="round" stroke-linejoin="round" stroke-width="3"/>
    <path id="Path_56" data-name="Path 56" d="M96.86,37.79V96a4,4,0,0,1-4,4H7.09a4,4,0,0,1-4-4V37.79" fill="none" stroke="#3055a3" stroke-linecap="round" stroke-linejoin="round" stroke-width="3"/>
    <path id="Path_57" data-name="Path 57" d="M44.19,40.75c-14.3-.14-28.57-.84-42.72-3.24A1.77,1.77,0,0,1,0,35.76v-14a4,4,0,0,1,4-4H96a4,4,0,0,1,4,4v14a1.77,1.77,0,0,1-1.47,1.74c-14.15,2.4-28.42,3.07-42.72,3.24C52.91,40.78,47.09,40.78,44.19,40.75Z" fill="none" stroke="#3055a3" stroke-linecap="round" stroke-linejoin="round" stroke-width="3"/>
    <path id="Path_58" data-name="Path 58" d="M71.8,17.79V4.63A4.63,4.63,0,0,0,67.17,0H32.83A4.63,4.63,0,0,0,28.2,4.63V17.79" fill="none" stroke="#3055a3" stroke-linecap="round" stroke-linejoin="round" stroke-width="3"/>
  </g>
</svg>
