<svg xmlns="http://www.w3.org/2000/svg" width="103.098" height="103" viewBox="0 0 103.098 103">
  <g id="ICON_Reanimatology" transform="translate(1.598 1.5)">
    <path id="Path_135" data-name="Path 135" d="M68.88,19.85h4.71l2.06,5.24,2.23-5.24,2.23-5.23,2.06,5.23H86.8" fill="none" stroke="#3055a3" stroke-linecap="round" stroke-linejoin="round" stroke-width="3"/>
    <path id="_Rectangle_" data-name="&lt;Rectangle&gt;" d="M55.68,33.87H100v2.31a3.54,3.54,0,0,1-3.54,3.54H59.22a3.54,3.54,0,0,1-3.54-3.54Z" fill="none" stroke="#3055a3" stroke-linecap="round" stroke-linejoin="round" stroke-width="3"/>
    <path id="_Rectangle_2" data-name="&lt;Rectangle&gt;" d="M61.91,7.55H93.77a3.34,3.34,0,0,1,3.34,3.34v23H58.57v-23a3.34,3.34,0,0,1,3.34-3.34Z" fill="none" stroke="#3055a3" stroke-linecap="round" stroke-linejoin="round" stroke-width="3"/>
    <path id="Path_136" data-name="Path 136" d="M15.53,19.62c-1.59.45-2.75,2.36-2.75,4.7,0,2.58,1.4,4.62,3.24,4.79a17.64,17.64,0,0,0,6,9.49l-.42,4.07a2.24,2.24,0,0,1-1.6,1.9l-10.26,3a9.72,9.72,0,0,0-4,2.11,11.85,11.85,0,0,0-4.08,6.81L0,81.06" fill="none" stroke="#3055a3" stroke-linecap="round" stroke-linejoin="round" stroke-width="3"/>
    <path id="Path_137" data-name="Path 137" d="M16.44,11.08a26.94,26.94,0,0,0-.9,8.54" fill="none" stroke="#3055a3" stroke-linecap="round" stroke-linejoin="round" stroke-width="3"/>
    <path id="Path_138" data-name="Path 138" d="M44.67,19.62c1.59.45,2.75,2.36,2.75,4.7,0,2.58-1.4,4.62-3.24,4.79a17.64,17.64,0,0,1-6,9.49l.47,4.07a2.24,2.24,0,0,0,1.6,1.89l10.26,3a9.72,9.72,0,0,1,4,2.11,11.85,11.85,0,0,1,4.08,6.81l1.64,24.6" fill="none" stroke="#3055a3" stroke-linecap="round" stroke-linejoin="round" stroke-width="3"/>
    <path id="Path_139" data-name="Path 139" d="M43.77,11.08a26.94,26.94,0,0,1,.9,8.54" fill="none" stroke="#3055a3" stroke-linecap="round" stroke-linejoin="round" stroke-width="3"/>
    <path id="Path_140" data-name="Path 140" d="M40.37,44.93l-4,3.58a9.4,9.4,0,0,1-12.55,0l-4-3.58" fill="none" stroke="#3055a3" stroke-linecap="round" stroke-linejoin="round" stroke-width="3"/>
    <path id="Path_141" data-name="Path 141" d="M77.84,39.72V91.11A8.89,8.89,0,0,1,69,100H38a8.89,8.89,0,0,1-8.89-8.89V77" fill="none" stroke="#3055a3" stroke-linecap="round" stroke-linejoin="round" stroke-width="3"/>
    <circle id="Ellipse_21" data-name="Ellipse 21" cx="3.58" cy="3.58" r="3.58" transform="translate(12.36 58.96)" stroke-width="3" stroke="#3055a3" stroke-linecap="round" stroke-linejoin="round" fill="none"/>
    <circle id="Ellipse_22" data-name="Ellipse 22" cx="3.58" cy="3.58" r="3.58" transform="translate(25.56 58.96)" stroke-width="3" stroke="#3055a3" stroke-linecap="round" stroke-linejoin="round" fill="none"/>
    <circle id="Ellipse_23" data-name="Ellipse 23" cx="3.58" cy="3.58" r="3.58" transform="translate(38.76 58.96)" stroke-width="3" stroke="#3055a3" stroke-linecap="round" stroke-linejoin="round" fill="none"/>
    <path id="Path_142" data-name="Path 142" d="M15.94,66.12l1.32,3.09A12.92,12.92,0,0,0,29.14,77h0A12.921,12.921,0,0,0,41,69.208L42.32,66.12" fill="none" stroke="#3055a3" stroke-linecap="round" stroke-linejoin="round" stroke-width="3"/>
    <line id="Line_51" data-name="Line 51" y2="5.46" transform="translate(29.14 66.12)" fill="none" stroke="#3055a3" stroke-linecap="round" stroke-linejoin="round" stroke-width="3"/>
    <path id="Path_143" data-name="Path 143" d="M43.77,11.08S40.94,0,30.1,0,16.44,11.08,16.44,11.08" fill="none" stroke="#3055a3" stroke-linecap="round" stroke-linejoin="round" stroke-width="3"/>
    <path id="Path_144" data-name="Path 144" d="M16,14.85C19,16,23.77,16,30.7,12.21A19.85,19.85,0,0,1,43.28,10" fill="none" stroke="#3055a3" stroke-linecap="round" stroke-linejoin="round" stroke-width="3"/>
  </g>
</svg>
