<svg xmlns="http://www.w3.org/2000/svg" width="95.923" height="104.182" viewBox="0 0 95.923 104.182">
  <g id="ICON_Angiology" transform="translate(-1.893 2.075)">
    <path id="Path_8" data-name="Path 8" d="M4,63.33c11.48-13.58,21.55-17,29.08-17,8.76.09,14.3-1.77,17.62-5.86h0q.46,1.5,1,3.05C60.16,68.36,42.53,92.73,34,100" fill="none" stroke="#3055a3" stroke-linecap="round" stroke-linejoin="round" stroke-width="2.99"/>
    <path id="Path_9" data-name="Path 9" d="M4,50.33a33.76,33.76,0,0,1,27.11-13.8c7.53.21,16.57-7.84,16.57-16.61A38.14,38.14,0,0,1,54.13,0" fill="none" stroke="#3055a3" stroke-linecap="round" stroke-linejoin="round" stroke-width="2.99"/>
    <path id="Path_10" data-name="Path 10" d="M11.09,27.88c5.6.92,13.63,4.5,14.84,9" fill="none" stroke="#3055a3" stroke-linecap="round" stroke-linejoin="round" stroke-width="2.99"/>
    <path id="Path_11" data-name="Path 11" d="M63.12,30.24c2.47-4.76,16.59-1.62,20.12-10.31" fill="none" stroke="#3055a3" stroke-linecap="round" stroke-linejoin="round" stroke-width="2.99"/>
    <path id="Path_12" data-name="Path 12" d="M96,86.71c-4.48-17.67-16.7-18.9-26.42-19h0a56.77,56.77,0,0,0-3-24.12C59.07,22.05,63,9,69,0" fill="none" stroke="#3055a3" stroke-linecap="round" stroke-linejoin="round" stroke-width="2.99"/>
    <path id="Path_13" data-name="Path 13" d="M85.41,88.49c-2.58-12.6-12.9-10.41-17.88-10h0A77.56,77.56,0,0,1,57.31,100" fill="none" stroke="#3055a3" stroke-linecap="round" stroke-linejoin="round" stroke-width="2.99"/>
    <path id="Path_14" data-name="Path 14" d="M84.22,70.35C85.55,66.58,90.71,64,96,64.79" fill="none" stroke="#3055a3" stroke-linecap="round" stroke-linejoin="round" stroke-width="2.99"/>
    <path id="Path_15" data-name="Path 15" d="M53.33,64.64c-6.19,4.12-13.57-2-20.94,2.21" fill="none" stroke="#3055a3" stroke-linecap="round" stroke-linejoin="round" stroke-width="2.99"/>
    <path id="Path_16" data-name="Path 16" d="M72.5,26.61C78.08,28.08,79.85,36,87,37.67" fill="none" stroke="#3055a3" stroke-linecap="round" stroke-linejoin="round" stroke-width="2.99"/>
  </g>
</svg>
