<svg xmlns="http://www.w3.org/2000/svg" width="103.18" height="103.184" viewBox="0 0 103.18 103.184">
  <g id="ICON_Endocrinology" transform="translate(1.567 1.5)">
    <path id="Path_41" data-name="Path 41" d="M27.6,17.43s6.72,12.46,24.72,3.07a27.63,27.63,0,0,1,20.44-1.9" fill="none" stroke="#3055a3" stroke-linecap="round" stroke-linejoin="round" stroke-width="3"/>
    <path id="Path_42" data-name="Path 42" d="M0,100a42.47,42.47,0,0,1,.75-6.23C2.08,89.63,6,85.35,9.48,82.46c.42-.34.83-.66,1.25-1A15.08,15.08,0,0,1,16.17,79l17-4.95a3.72,3.72,0,0,0,2.66-3.15l.78-6.77a29.3,29.3,0,0,1-10-15.76,5.77,5.77,0,0,1-4.52-3.72,10.39,10.39,0,0,1-.86-4.23c0-3.89,1.92-7,4.56-7.8,0,0-.53-7.74,1.5-14.19C27.3,18.4,32,0,50,0S72.7,18.4,72.7,18.4a45.81,45.81,0,0,1,1.5,14.19c2.65.76,4.56,3.91,4.56,7.8a10.39,10.39,0,0,1-.86,4.23,5.77,5.77,0,0,1-4.52,3.72,29.3,29.3,0,0,1-10,15.76l.78,6.77A3.72,3.72,0,0,0,66.79,74l17,4.95a15.08,15.08,0,0,1,5.43,2.55,12.159,12.159,0,0,1,1.25,1c3.49,2.89,7.65,6.91,8.74,11.31A55.051,55.051,0,0,1,100,100" fill="none" stroke="#3055a3" stroke-linecap="round" stroke-linejoin="round" stroke-width="3"/>
    <path id="Path_43" data-name="Path 43" d="M50,91.7c4.94,0,5.7,2.68,8.1,2.68s4.56-3,4.56-6.35-.24-10.28-3.1-10.28-6.5,6.62-9.56,6.62-6.69-6.62-9.56-6.62-3.1,7-3.1,10.28,2.16,6.35,4.56,6.35S45.06,91.7,50,91.7Z" fill="none" stroke="#3055a3" stroke-linecap="round" stroke-linejoin="round" stroke-width="3"/>
    <line id="Line_10" data-name="Line 10" x1="1" y2="7.53" transform="translate(45.06 92.47)" fill="none" stroke="#3055a3" stroke-linecap="round" stroke-linejoin="round" stroke-width="3"/>
    <line id="Line_11" data-name="Line 11" y2="13.84" transform="translate(46.06 68.13)" fill="none" stroke="#3055a3" stroke-linecap="round" stroke-linejoin="round" stroke-width="3"/>
    <line id="Line_12" data-name="Line 12" x2="1" y2="7.53" transform="translate(53.94 92.47)" fill="none" stroke="#3055a3" stroke-linecap="round" stroke-linejoin="round" stroke-width="3"/>
    <line id="Line_13" data-name="Line 13" y2="8.59" transform="translate(53.94 73.38)" fill="none" stroke="#3055a3" stroke-linecap="round" stroke-linejoin="round" stroke-width="3"/>
    <line id="Line_14" data-name="Line 14" x2="3.07" transform="translate(46.06 77.75)" fill="none" stroke="#3055a3" stroke-linecap="round" stroke-linejoin="round" stroke-width="3"/>
    <line id="Line_15" data-name="Line 15" x2="3.07" transform="translate(46.06 72.88)" fill="none" stroke="#3055a3" stroke-linecap="round" stroke-linejoin="round" stroke-width="3"/>
  </g>
</svg>
