<svg xmlns="http://www.w3.org/2000/svg" width="103.051" height="103.012" viewBox="0 0 103.051 103.012">
  <g id="ICON_Morphology" transform="translate(1.5 1.512)">
    <line id="_Path_" data-name="&lt;Path&gt;" x2="0.28" y2="1.75" transform="translate(95.48 52.98)" fill="none" stroke="#3055a3" stroke-linecap="round" stroke-linejoin="round" stroke-width="3"/>
    <line id="_Path_2" data-name="&lt;Path&gt;" x2="0.28" y2="1.74" transform="translate(91.87 52.83)" fill="none" stroke="#3055a3" stroke-linecap="round" stroke-linejoin="round" stroke-width="3"/>
    <line id="_Path_3" data-name="&lt;Path&gt;" x2="0.27" y2="1.75" transform="translate(88.26 52.67)" fill="none" stroke="#3055a3" stroke-linecap="round" stroke-linejoin="round" stroke-width="3"/>
    <line id="_Path_4" data-name="&lt;Path&gt;" x2="0.27" y2="1.74" transform="translate(84.65 52.52)" fill="none" stroke="#3055a3" stroke-linecap="round" stroke-linejoin="round" stroke-width="3"/>
    <line id="_Path_5" data-name="&lt;Path&gt;" x2="0.27" y2="1.75" transform="translate(81.04 52.36)" fill="none" stroke="#3055a3" stroke-linecap="round" stroke-linejoin="round" stroke-width="3"/>
    <line id="_Path_6" data-name="&lt;Path&gt;" x2="0.27" y2="1.74" transform="translate(95.84 57.66)" fill="none" stroke="#3055a3" stroke-linecap="round" stroke-linejoin="round" stroke-width="3"/>
    <line id="_Path_7" data-name="&lt;Path&gt;" x2="0.27" y2="1.75" transform="translate(92.23 57.5)" fill="none" stroke="#3055a3" stroke-linecap="round" stroke-linejoin="round" stroke-width="3"/>
    <line id="_Path_8" data-name="&lt;Path&gt;" x2="0.28" y2="1.74" transform="translate(88.61 57.35)" fill="none" stroke="#3055a3" stroke-linecap="round" stroke-linejoin="round" stroke-width="3"/>
    <line id="_Path_9" data-name="&lt;Path&gt;" x2="0.28" y2="1.75" transform="translate(85 57.19)" fill="none" stroke="#3055a3" stroke-linecap="round" stroke-linejoin="round" stroke-width="3"/>
    <line id="_Path_10" data-name="&lt;Path&gt;" x2="0.27" y2="1.74" transform="translate(81.39 57.04)" fill="none" stroke="#3055a3" stroke-linecap="round" stroke-linejoin="round" stroke-width="3"/>
    <path id="Path_82" data-name="Path 82" d="M55.78,43.7s12.3.86,22.2-6.88A9.76,9.76,0,0,1,80.6,25.1" fill="none" stroke="#3055a3" stroke-linecap="round" stroke-linejoin="round" stroke-width="3"/>
    <path id="Path_83" data-name="Path 83" d="M21.63,33.62c-.19-11.48,5.3-19.27,11.13-24.29a39.1,39.1,0,0,1,22-9.08C72.47-1.39,80.49,5.52,84,10.73a17.84,17.84,0,0,1,2.74,7.13c1.12,7.11,5.1,10.66,8.2,12.38a4.58,4.58,0,0,1,1.91,5.93l-2.77,6A71.881,71.881,0,0,1,98.7,52.84" fill="none" stroke="#3055a3" stroke-linecap="round" stroke-linejoin="round" stroke-width="3"/>
    <path id="Path_84" data-name="Path 84" d="M99.41,58.54a6.51,6.51,0,0,0,.14,5.32A4.22,4.22,0,0,1,100,65.1c.25,1.8-.26,5.83-10.11,5L79.7,69.85C70.69,70,69,62.16,69,62.16c-2.2-7.82-6.86-10-9.86-10.64A6.87,6.87,0,0,0,53.2,53a5.94,5.94,0,0,0-2,4.35" fill="none" stroke="#3055a3" stroke-linecap="round" stroke-linejoin="round" stroke-width="3"/>
    <path id="Path_85" data-name="Path 85" d="M90,36.51a5.23,5.23,0,0,1-7.54-7.22" fill="none" stroke="#3055a3" stroke-linecap="round" stroke-linejoin="round" stroke-width="3"/>
    <path id="Path_86" data-name="Path 86" d="M26.55,52.92l6.41,11.1L24.91,77.95H8.82L.77,64.02,8.82,50.08H21.63" fill="none" stroke="#3055a3" stroke-linecap="round" stroke-linejoin="round" stroke-width="3"/>
    <line id="Line_31" data-name="Line 31" x2="11.67" transform="translate(11.03 72.13)" fill="none" stroke="#3055a3" stroke-linecap="round" stroke-linejoin="round" stroke-width="3"/>
    <path id="Path_87" data-name="Path 87" d="M45.75,91.89H32.95L24.9,77.95l8.05-13.93H49.04l8.05,13.93-6.4,11.1" fill="none" stroke="#3055a3" stroke-linecap="round" stroke-linejoin="round" stroke-width="3"/>
    <line id="Line_32" data-name="Line 32" x2="11.67" transform="translate(35.16 69.84)" fill="none" stroke="#3055a3" stroke-linecap="round" stroke-linejoin="round" stroke-width="3"/>
    <line id="Line_33" data-name="Line 33" x1="4.62" y2="8.11" transform="translate(4.2 77.95)" fill="none" stroke="#3055a3" stroke-linecap="round" stroke-linejoin="round" stroke-width="3"/>
    <circle id="Ellipse_14" data-name="Ellipse 14" cx="2.86" cy="2.86" r="2.86" transform="translate(0 85.73)" stroke-width="3" stroke="#3055a3" stroke-linecap="round" stroke-linejoin="round" fill="none"/>
    <path id="Path_88" data-name="Path 88" d="M25.91,42A7.12,7.12,0,0,1,33,49.08" fill="none" stroke="#3055a3" stroke-linecap="round" stroke-linejoin="round" stroke-width="3"/>
    <circle id="Ellipse_15" data-name="Ellipse 15" cx="3.29" cy="3.29" r="3.29" transform="translate(21.62 46.79)" stroke-width="3" stroke="#3055a3" stroke-linecap="round" stroke-linejoin="round" fill="none"/>
    <path id="Path_89" data-name="Path 89" d="M57.15,92.89A7.12,7.12,0,0,1,50,100" fill="none" stroke="#3055a3" stroke-linecap="round" stroke-linejoin="round" stroke-width="3"/>
    <circle id="Ellipse_16" data-name="Ellipse 16" cx="3.29" cy="3.29" r="3.29" transform="translate(45.75 88.6)" stroke-width="3" stroke="#3055a3" stroke-linecap="round" stroke-linejoin="round" fill="none"/>
  </g>
</svg>
