<svg xmlns="http://www.w3.org/2000/svg" width="103" height="103" viewBox="0 0 103 103">
  <g id="ICON_Doctor-Laborant" transform="translate(1.5 1.5)">
    <path id="Path_34" data-name="Path 34" d="M92.72,56.84h7V92.5a7.5,7.5,0,0,1-7.51,7.5H7.51A7.5,7.5,0,0,1,0,92.5V56.84H7" fill="none" stroke="#3055a3" stroke-linecap="round" stroke-linejoin="round" stroke-width="3"/>
    <path id="Path_35" data-name="Path 35" d="M28.3,45.86v38A7.28,7.28,0,0,1,21,91.18h0a7.28,7.28,0,0,1-7.29-7.28v-38H13.2a2.53,2.53,0,0,1-2.53-2.53V38h20.7v5.31a2.53,2.53,0,0,1-2.53,2.53H21" fill="none" stroke="#3055a3" stroke-linecap="round" stroke-linejoin="round" stroke-width="3"/>
    <path id="Path_36" data-name="Path 36" d="M57.13,45.86v38a7.28,7.28,0,0,1-7.29,7.28h0a7.28,7.28,0,0,1-7.29-7.28v-38H42a2.53,2.53,0,0,1-2.53-2.53V38H60.2v5.31a2.53,2.53,0,0,1-2.53,2.53H49.85" fill="none" stroke="#3055a3" stroke-linecap="round" stroke-linejoin="round" stroke-width="3"/>
    <path id="Path_37" data-name="Path 37" d="M86,45.86v38a7.28,7.28,0,0,1-7.29,7.28h0a7.28,7.28,0,0,1-7.29-7.28v-38h-.56a2.53,2.53,0,0,1-2.53-2.53V38H89v5.31a2.53,2.53,0,0,1-2.53,2.53H78.68" fill="none" stroke="#3055a3" stroke-linecap="round" stroke-linejoin="round" stroke-width="3"/>
    <path id="Path_38" data-name="Path 38" d="M59.52,14.23,59.58,0,95,.1a5,5,0,0,1,5,5V9.3a5,5,0,0,1-5,5Z" fill="none" stroke="#3055a3" stroke-linecap="round" stroke-linejoin="round" stroke-width="3"/>
    <path id="Path_39" data-name="Path 39" d="M25.15,11.29H59.53V2.99L25.19,3A4.15,4.15,0,0,0,21,7.12h0a4.15,4.15,0,0,0,4.15,4.17Z" fill="none" stroke="#3055a3" stroke-linecap="round" stroke-linejoin="round" stroke-width="3"/>
    <path id="Path_40" data-name="Path 40" d="M26.24,26.32c0-4.18-5.23-9.48-5.23-9.48s-5.23,5.3-5.23,9.48A5.22,5.22,0,0,0,21,31.54h0a5.22,5.22,0,0,0,5.24-5.22Z" fill="none" stroke="#3055a3" stroke-linecap="round" stroke-linejoin="round" stroke-width="3"/>
  </g>
</svg>
