<svg xmlns="http://www.w3.org/2000/svg" width="103.065" height="103.075" viewBox="0 0 103.065 103.075">
  <g id="ICON_Dermatology" transform="translate(1.561 1.527)">
    <path id="Path_27" data-name="Path 27" d="M2.58,100c-.45-15.62,14-17.66,22-17.66S36.44,80,35.86,65.12" fill="none" stroke="#3055a3" stroke-linecap="round" stroke-linejoin="round" stroke-width="3.01"/>
    <path id="Path_28" data-name="Path 28" d="M16.39,77.13C.54,64.23-4.86,49.47,4.84,40.45c11.82-11,14.26-18.11,14.83-22.19S23.41,4.06,43.79.52s48.69,10.64,34,51.36" fill="none" stroke="#3055a3" stroke-linecap="round" stroke-linejoin="round" stroke-width="3.01"/>
    <path id="Path_29" data-name="Path 29" d="M47.77,71.54c-12.12,0-22.18-19.71-24.08-34.87" fill="none" stroke="#3055a3" stroke-linecap="round" stroke-linejoin="round" stroke-width="3.01"/>
    <path id="Path_30" data-name="Path 30" d="M65.25,57a36.42,36.42,0,0,1-8.44,10.86" fill="none" stroke="#3055a3" stroke-linecap="round" stroke-linejoin="round" stroke-width="3.01"/>
    <path id="Path_31" data-name="Path 31" d="M58.84,11.16A23,23,0,0,1,72.17,31.8a51.23,51.23,0,0,1-2.69,15.28" fill="none" stroke="#3055a3" stroke-linecap="round" stroke-linejoin="round" stroke-width="3.01"/>
    <circle id="Ellipse_1" data-name="Ellipse 1" cx="18.72" cy="18.72" r="18.72" transform="translate(48.77 48.78)" stroke-width="3.01" stroke="#3055a3" stroke-linecap="round" stroke-linejoin="round" fill="none"/>
    <path id="Path_32" data-name="Path 32" d="M76.53,83.88,88.64,98.05a6.654,6.654,0,0,0,9.41-9.41L83.88,76.54" fill="none" stroke="#3055a3" stroke-linecap="round" stroke-linejoin="round" stroke-width="3.01"/>
    <path id="Path_33" data-name="Path 33" d="M54.81,17.1c-1.21,11.47-16.55,11.76-24,14.39s-13.36,11.57-11.61,24" fill="none" stroke="#3055a3" stroke-linecap="round" stroke-linejoin="round" stroke-width="3.01"/>
  </g>
</svg>
