<svg xmlns="http://www.w3.org/2000/svg" width="103.089" height="103.012" viewBox="0 0 103.089 103.012">
  <g id="ICON_Gynecology" transform="translate(1.544 1.512)">
    <path id="Path_63" data-name="Path 63" d="M78.43,7.66c-3.34,4.16-3.63,9.64-.65,12.24s8.11,1.33,11.44-2.83,3.63-9.64.65-12.24S81.77,3.5,78.43,7.66Z" fill="none" stroke="#3055a3" stroke-linecap="round" stroke-linejoin="round" stroke-width="3"/>
    <path id="Path_64" data-name="Path 64" d="M40,13.43l.25-.26C42,11.36,45.58,8.34,50,8.34s8,3,9.73,4.82" fill="none" stroke="#3055a3" stroke-linecap="round" stroke-linejoin="round" stroke-width="3"/>
    <path id="Path_65" data-name="Path 65" d="M92.58,1.39C94.92-1,98.12-.16,99.15,2.89c1.67,4.95,1.64,15.93-7.28,23.57A17.71,17.71,0,0,1,82,30.22c-5.56.57-15-.21-24.33-9.1q-.645-.63-1.26-1.29c-1-1-3.59-3.41-6.45-3.41s-5.49,2.41-6.45,3.41c-.42.43-.83.87-1.26,1.29C33,30,23.52,30.79,18,30.22a17.71,17.71,0,0,1-9.82-3.76C-.79,18.83-.82,7.84.85,2.89,1.88-.16,5.08-1,7.42,1.39" fill="none" stroke="#3055a3" stroke-linecap="round" stroke-linejoin="round" stroke-width="3"/>
    <path id="Path_66" data-name="Path 66" d="M21.57,7.66c3.34,4.16,3.63,9.64.65,12.24s-8.11,1.33-11.44-2.83S7.14,7.43,10.12,4.83,18.23,3.5,21.57,7.66Z" fill="none" stroke="#3055a3" stroke-linecap="round" stroke-linejoin="round" stroke-width="3"/>
    <path id="Path_67" data-name="Path 67" d="M27.09,29.64s6.29,1.14,7.71,15.47A26.19,26.19,0,0,0,37,53.56a20.62,20.62,0,0,0,2.86,4.58S38,70.83,41.73,76.09l-.48.61a7.87,7.87,0,0,0-1.34,7.08L44.7,100H50" fill="none" stroke="#3055a3" stroke-linecap="round" stroke-linejoin="round" stroke-width="3"/>
    <path id="Path_68" data-name="Path 68" d="M72.91,29.64s-6.29,1.14-7.71,15.47A26.18,26.18,0,0,1,63,53.56a20.62,20.62,0,0,1-2.86,4.58S62,70.83,58.27,76.09l.48.61a7.88,7.88,0,0,1,1.34,7.08L55.3,100H50" fill="none" stroke="#3055a3" stroke-linecap="round" stroke-linejoin="round" stroke-width="3"/>
    <path id="Path_69" data-name="Path 69" d="M41.73,76.09a10.86,10.86,0,0,0,6.14,2" fill="none" stroke="#3055a3" stroke-linecap="round" stroke-linejoin="round" stroke-width="3"/>
    <path id="Path_70" data-name="Path 70" d="M58.27,76.09a10.86,10.86,0,0,1-6.14,2" fill="none" stroke="#3055a3" stroke-linecap="round" stroke-linejoin="round" stroke-width="3"/>
    <line id="Line_29" data-name="Line 29" y1="13.73" transform="translate(50 56.9)" fill="none" stroke="#3055a3" stroke-linecap="round" stroke-linejoin="round" stroke-width="3"/>
  </g>
</svg>
