<svg xmlns="http://www.w3.org/2000/svg" width="103.34" height="103.797" viewBox="0 0 103.34 103.797">
  <g id="ICON_Laryngology" transform="translate(1.494 1.951)">
    <path id="Path_71" data-name="Path 71" d="M14.42,0A97,97,0,0,1,2.57,21.27,14.22,14.22,0,0,0,.35,25.91c-.66,2.5-.7,5.51,2.92,5.51H9.32s3.1,3.76.81,10.23a3.78,3.78,0,0,0,3.47,5c3.25.13,8.11-.31,14.93-2.36,1.79-.54,3.54-1.18,5.28-1.87,7-2.75,35.93-12.57,40.69,11.83C79.45,79.57,81.4,86.34,84.93,100" fill="none" stroke="#3055a3" stroke-linecap="round" stroke-linejoin="round" stroke-width="3"/>
    <path id="Path_72" data-name="Path 72" d="M29.25,49c-8.17,2.34-11.72,2.51-15.52,2.31a2.34,2.34,0,0,0-1.5.39,2.66,2.66,0,0,0-1,2,4.07,4.07,0,0,0,1.7,3.56c2.69,2.14.76,5.12.76,5.12a9.17,9.17,0,0,0-1.42,5.78,10.17,10.17,0,0,0,6.14,8.29A64.36,64.36,0,0,0,43.84,81.7a9,9,0,0,1,8.84,7.68A59.26,59.26,0,0,1,53.26,100" fill="none" stroke="#3055a3" stroke-linecap="round" stroke-linejoin="round" stroke-width="3"/>
    <path id="Path_73" data-name="Path 73" d="M100,100A410.546,410.546,0,0,1,89.79,52.27a34.84,34.84,0,0,1,.94-14.62c2.32-8.27,5.1-23.47-.24-37.64" fill="none" stroke="#3055a3" stroke-linecap="round" stroke-linejoin="round" stroke-width="3"/>
    <path id="Path_74" data-name="Path 74" d="M66,70.22c2.79,13.19,4.55,19.55,7.19,29.78" fill="none" stroke="#3055a3" stroke-linecap="round" stroke-linejoin="round" stroke-width="3"/>
  </g>
</svg>
