<svg xmlns="http://www.w3.org/2000/svg" width="103.021" height="103.157" viewBox="0 0 103.021 103.157">
  <g id="ICON_Rheumatology" transform="translate(1.474 1.609)">
    <path id="Path_152" data-name="Path 152" d="M74.43,40.49l-14.6,8.56,10.15,2.44L56.04,59.51" fill="none" stroke="#3055a3" stroke-linecap="round" stroke-linejoin="round" stroke-width="3"/>
    <path id="Path_153" data-name="Path 153" d="M87.97,63.44l-16.8-1.99,6.61,8.07L61.83,67.49" fill="none" stroke="#3055a3" stroke-linecap="round" stroke-linejoin="round" stroke-width="3"/>
    <path id="Path_154" data-name="Path 154" d="M53.58,27.53,44.97,42.1l10.06-2.79-8.3,13.78" fill="none" stroke="#3055a3" stroke-linecap="round" stroke-linejoin="round" stroke-width="3"/>
    <path id="Path_155" data-name="Path 155" d="M88.87,90.07S87,86.36,78.81,84a81.53,81.53,0,0,1-21-9.65c-2.24-1.43-4.66-2.88-7.12-4.17a23.86,23.86,0,0,1-12.4-16.06,53.56,53.56,0,0,1-.87-14.42l3-39.7" fill="none" stroke="#3055a3" stroke-linecap="round" stroke-linejoin="round" stroke-width="3"/>
    <path id="Path_156" data-name="Path 156" d="M88.87,90.07a9.49,9.49,0,0,1,6.45-2.56A4.76,4.76,0,0,1,100,92.88c-.42,3-2.7,6.48-11,6.48a18.2,18.2,0,0,1-5.43-.66,16.06,16.06,0,0,0-8.42,0A37,37,0,0,1,51.6,97.31a31.6,31.6,0,0,0-20.5-.75,52.54,52.54,0,0,1-18.72,2.32A12.88,12.88,0,0,1,4,95c-5.81-6.12-2.51-14.89-.15-19.41a26,26,0,0,0,2.7-7.86,84.341,84.341,0,0,0,1-10.88A85.25,85.25,0,0,0,4.07,30.71,99.84,99.84,0,0,1,.06,0" fill="none" stroke="#3055a3" stroke-linecap="round" stroke-linejoin="round" stroke-width="3"/>
  </g>
</svg>
