<svg xmlns="http://www.w3.org/2000/svg" width="103" height="103" viewBox="0 0 103 103">
  <g id="ICON_Reproductology" transform="translate(1.5 1.5)">
    <path id="Path_145" data-name="Path 145" d="M27.5,75.66C8.77,87.86,9.23,97.63,9.23,100" fill="none" stroke="#3055a3" stroke-linecap="round" stroke-linejoin="round" stroke-width="3"/>
    <path id="Path_146" data-name="Path 146" d="M9.23,0c0,2.37-.45,12.14,18.27,24.34" fill="none" stroke="#3055a3" stroke-linecap="round" stroke-linejoin="round" stroke-width="3"/>
    <path id="Path_147" data-name="Path 147" d="M46.16,0c0,2.37.45,12.14-18.27,24.34C8.75,36.81,9.23,48.15,9.23,50S8.75,63.19,27.89,75.66c18.72,12.2,18.27,22,18.27,24.34" fill="none" stroke="#3055a3" stroke-linecap="round" stroke-linejoin="round" stroke-width="3"/>
    <path id="Path_148" data-name="Path 148" d="M16.12,21.52C5.62,30.12,0,40,0,49.89v.2C0,60,5.62,69.88,16.12,78.48" fill="none" stroke="#3055a3" stroke-linecap="round" stroke-linejoin="round" stroke-width="3"/>
    <path id="Path_149" data-name="Path 149" d="M35.79,69.32a63.839,63.839,0,0,1-8.1,6.21C8.75,63.12,9.23,51.85,9.23,50S8.75,36.88,27.69,24.47a64,64,0,0,1,8,6.17" fill="none" stroke="#3055a3" stroke-linecap="round" stroke-linejoin="round" stroke-width="3"/>
    <line id="Line_52" data-name="Line 52" x2="18.46" transform="translate(9.23)" fill="none" stroke="#3055a3" stroke-linecap="round" stroke-linejoin="round" stroke-width="3"/>
    <line id="Line_53" data-name="Line 53" x2="12.29" transform="translate(15.4 5.87)" fill="none" stroke="#3055a3" stroke-linecap="round" stroke-linejoin="round" stroke-width="3"/>
    <line id="Line_54" data-name="Line 54" x2="7.93" transform="translate(19.76 11.73)" fill="none" stroke="#3055a3" stroke-linecap="round" stroke-linejoin="round" stroke-width="3"/>
    <line id="Line_55" data-name="Line 55" x1="18.47" transform="translate(27.5 100)" fill="none" stroke="#3055a3" stroke-linecap="round" stroke-linejoin="round" stroke-width="3"/>
    <line id="Line_56" data-name="Line 56" x1="12.3" transform="translate(27.5 94.13)" fill="none" stroke="#3055a3" stroke-linecap="round" stroke-linejoin="round" stroke-width="3"/>
    <line id="Line_57" data-name="Line 57" x1="7.94" transform="translate(27.5 88.27)" fill="none" stroke="#3055a3" stroke-linecap="round" stroke-linejoin="round" stroke-width="3"/>
    <line id="Line_58" data-name="Line 58" x2="13.49" transform="translate(20.95 50)" fill="none" stroke="#3055a3" stroke-linecap="round" stroke-linejoin="round" stroke-width="3"/>
    <line id="Line_59" data-name="Line 59" x2="8.49" transform="translate(23.45 44.33)" fill="none" stroke="#3055a3" stroke-linecap="round" stroke-linejoin="round" stroke-width="3"/>
    <line id="Line_60" data-name="Line 60" x2="8.49" transform="translate(23.45 55.67)" fill="none" stroke="#3055a3" stroke-linecap="round" stroke-linejoin="round" stroke-width="3"/>
    <path id="Path_150" data-name="Path 150" d="M55.39,0V.13c0,7.42-3.13,14.54-9.42,21.28" fill="none" stroke="#3055a3" stroke-linecap="round" stroke-linejoin="round" stroke-width="3"/>
    <circle id="Ellipse_24" data-name="Ellipse 24" cx="18.33" cy="18.33" r="18.33" transform="translate(34.741 52.677) rotate(-45)" stroke-width="3" stroke="#3055a3" stroke-linecap="round" stroke-linejoin="round" fill="none"/>
    <line id="Line_61" data-name="Line 61" y1="10.73" x2="10.73" transform="translate(73.62 28.99)" fill="none" stroke="#3055a3" stroke-linecap="round" stroke-linejoin="round" stroke-width="3"/>
    <path id="Path_151" data-name="Path 151" d="M84.35,40.42V28.99H72.92" fill="none" stroke="#3055a3" stroke-linecap="round" stroke-linejoin="round" stroke-width="3"/>
    <circle id="Ellipse_25" data-name="Ellipse 25" cx="18.33" cy="18.33" r="18.33" transform="translate(63.34 48.17)" stroke-width="3" stroke="#3055a3" stroke-linecap="round" stroke-linejoin="round" fill="none"/>
    <line id="Line_62" data-name="Line 62" y2="15.17" transform="translate(81.67 84.83)" fill="none" stroke="#3055a3" stroke-linecap="round" stroke-linejoin="round" stroke-width="3"/>
    <line id="Line_63" data-name="Line 63" x1="15.17" transform="translate(74.09 92.41)" fill="none" stroke="#3055a3" stroke-linecap="round" stroke-linejoin="round" stroke-width="3"/>
  </g>
</svg>
