<svg xmlns="http://www.w3.org/2000/svg" width="93.064" height="103.122" viewBox="0 0 93.064 103.122">
  <g id="ICON_Neurology" transform="translate(-3.49 1.524)">
    <line id="Line_35" data-name="Line 35" x1="4.64" y1="6.31" transform="translate(36.84 14.93)" fill="none" stroke="#3055a3" stroke-linecap="round" stroke-linejoin="round" stroke-width="3.01"/>
    <line id="Line_36" data-name="Line 36" x1="4.79" y2="4.24" transform="translate(34.44 48.14)" fill="none" stroke="#3055a3" stroke-linecap="round" stroke-linejoin="round" stroke-width="3.01"/>
    <line id="Line_37" data-name="Line 37" x2="7.05" transform="translate(70.46 36.3)" fill="none" stroke="#3055a3" stroke-linecap="round" stroke-linejoin="round" stroke-width="3.01"/>
    <line id="Line_38" data-name="Line 38" y1="5.59" x2="3.69" transform="translate(65 16.26)" fill="none" stroke="#3055a3" stroke-linecap="round" stroke-linejoin="round" stroke-width="3.01"/>
    <line id="Line_39" data-name="Line 39" x2="8.77" y2="2.2" transform="translate(68.74 43.95)" fill="none" stroke="#3055a3" stroke-linecap="round" stroke-linejoin="round" stroke-width="3.01"/>
    <line id="Line_40" data-name="Line 40" x2="0.1" y2="7.03" transform="translate(52.77 54.63)" fill="none" stroke="#3055a3" stroke-linecap="round" stroke-linejoin="round" stroke-width="3.01"/>
    <line id="Line_41" data-name="Line 41" x1="4.62" transform="translate(29.73 36.3)" fill="none" stroke="#3055a3" stroke-linecap="round" stroke-linejoin="round" stroke-width="3.01"/>
    <line id="Line_42" data-name="Line 42" x1="12.66" y1="9.57" transform="translate(65 49)" fill="none" stroke="#3055a3" stroke-linecap="round" stroke-linejoin="round" stroke-width="3.01"/>
    <path id="Path_95" data-name="Path 95" d="M44.87,28c4.62,5.26,7.95,4.06,7.95-2.88" fill="none" stroke="#3055a3" stroke-linecap="round" stroke-linejoin="round" stroke-width="3.01"/>
    <path id="Path_96" data-name="Path 96" d="M42.11,43.59c6.23-3.79,5.61-7.26-1.47-8.28" fill="none" stroke="#3055a3" stroke-linecap="round" stroke-linejoin="round" stroke-width="3.01"/>
    <path id="Path_97" data-name="Path 97" d="M57,49c-2.46-6.93-6-6.93-8.46,0" fill="none" stroke="#3055a3" stroke-linecap="round" stroke-linejoin="round" stroke-width="3.01"/>
    <path id="Path_98" data-name="Path 98" d="M60.77,28c-4.62,5.26-2.85,8.31,4.23,7.28" fill="none" stroke="#3055a3" stroke-linecap="round" stroke-linejoin="round" stroke-width="3.01"/>
    <line id="Line_43" data-name="Line 43" x1="9.19" y1="5.17" transform="translate(25.16 21.24)" fill="none" stroke="#3055a3" stroke-linecap="round" stroke-linejoin="round" stroke-width="3.01"/>
    <line id="Line_44" data-name="Line 44" y1="7.59" x2="0.08" transform="translate(53.59 9.1)" fill="none" stroke="#3055a3" stroke-linecap="round" stroke-linejoin="round" stroke-width="3.01"/>
    <line id="Line_45" data-name="Line 45" y1="4.55" x2="6.69" transform="translate(70.03 23.13)" fill="none" stroke="#3055a3" stroke-linecap="round" stroke-linejoin="round" stroke-width="3.01"/>
    <line id="Line_46" data-name="Line 46" x2="2.75" y2="8.36" transform="translate(62.25 58.57)" fill="none" stroke="#3055a3" stroke-linecap="round" stroke-linejoin="round" stroke-width="3.01"/>
    <path id="Path_99" data-name="Path 99" d="M80.41,100V82.46a32,32,0,0,1,6.32-18.13,36.24,36.24,0,0,0,5.93-10.79C96.5,41.79,98.75,18.74,73.3,5.23c0,0-28.69-14.74-50.64,5.26a28.89,28.89,0,0,0-8.53,13.67,40.46,40.46,0,0,0-1,15.54c.09.73.22,1.44.35,2.16A15.55,15.55,0,0,1,11.19,53L5.34,61.4S3.6,65.09,8,65.88a9.18,9.18,0,0,1,2.37.55,1,1,0,0,1,.39,1.64c-.65.75-1.24,2,.61,3a1.08,1.08,0,0,1,.43,1.51c-.59,1-.92,2.51,1.6,3.26A1.07,1.07,0,0,1,14.13,77c-.59,3-1.64,12,6.62,11.85l6.83-.66a9.29,9.29,0,0,1,10.09,7.52c.22,1.22.41,2.63.56,4.25" fill="none" stroke="#3055a3" stroke-linecap="round" stroke-linejoin="round" stroke-width="3.01"/>
  </g>
</svg>
