<svg xmlns="http://www.w3.org/2000/svg" width="103.008" height="103.606" viewBox="0 0 103.008 103.606">
  <g id="ICON_Psychology" transform="translate(1.508 1.495)">
    <path id="Path_116" data-name="Path 116" d="M82,55.46a29.64,29.64,0,0,0,1.71-4.19C87.33,40,89.38,17.8,65,4.93c0,0-27.48-14-48.36,5.28A27.79,27.79,0,0,0,8.56,23.39a39.11,39.11,0,0,0-.9,14.94c.08.67.21,1.38.34,2.08A15,15,0,0,1,5.87,51.07L.32,59.21s-1.65,3.56,2.51,4.29A8.73,8.73,0,0,1,5.1,64a1,1,0,0,1,.38,1.58c-.62.72-1.18,1.91.59,2.86a1,1,0,0,1,.42,1.45c-.56,1-.87,2.44,1.51,3.11a1,1,0,0,1,.75,1.17c-.55,2.92-1.52,11.52,6.38,11.36l6.53-.67a8.89,8.89,0,0,1,9.67,7.18,44.911,44.911,0,0,1,.9,7.91" fill="none" stroke="#3055a3" stroke-linecap="round" stroke-linejoin="round" stroke-width="3"/>
    <path id="Path_117" data-name="Path 117" d="M69.56,34.73a5.54,5.54,0,0,0-3.19-9.68,5.54,5.54,0,0,0-6.85-7.54,5.54,5.54,0,0,0-9.33-4.1,5.54,5.54,0,0,0-10.19,0,5.54,5.54,0,0,0-9.29,4.19,5.54,5.54,0,0,0-6.79,7.61A5.54,5.54,0,0,0,20.81,35a5.54,5.54,0,0,0,1.11,10.13,5.54,5.54,0,0,0,5.14,8.8,5.54,5.54,0,0,0,8.27,6,5.54,5.54,0,0,0,10,2.07,5.54,5.54,0,0,0,10-2.17,5.54,5.54,0,0,0,8.22-6,5.54,5.54,0,0,0,5.06-8.85,5.54,5.54,0,0,0,.95-10.25Z" fill="none" stroke="#3055a3" stroke-linecap="round" stroke-linejoin="round" stroke-width="3"/>
    <path id="Path_118" data-name="Path 118" d="M29.79,43.86a5.15,5.15,0,0,0,4.6-7.43,5.22,5.22,0,0,0,3.24-.29,5.63,5.63,0,0,0,3.34-4,5.43,5.43,0,0,0-.24-3H41.8c5.05-.49,6.41-7.16,2.15-9.92-2-1.28-3.83-3.16-4-5.73" fill="none" stroke="#3055a3" stroke-linecap="round" stroke-linejoin="round" stroke-width="3"/>
    <path id="Path_119" data-name="Path 119" d="M41.09,29.14a11.81,11.81,0,0,1-6.63-6.75" fill="none" stroke="#3055a3" stroke-linecap="round" stroke-linejoin="round" stroke-width="3"/>
    <path id="Path_120" data-name="Path 120" d="M59.51,17.51s-3.23,10.82-13.17,7.61" fill="none" stroke="#3055a3" stroke-linecap="round" stroke-linejoin="round" stroke-width="3"/>
    <path id="Path_121" data-name="Path 121" d="M69.56,34.73a7.74,7.74,0,0,0-7.74,6.34s-6.45-3.42-12.24.15a10.67,10.67,0,0,0-3.13,3c-1.54,2.22-3.62,6.41-1.86,11.14" fill="none" stroke="#3055a3" stroke-linecap="round" stroke-linejoin="round" stroke-width="3"/>
    <path id="Path_122" data-name="Path 122" d="M66.49,24.76s-12.77,2.41-12.4,14.92" fill="none" stroke="#3055a3" stroke-linecap="round" stroke-linejoin="round" stroke-width="3"/>
    <path id="Path_123" data-name="Path 123" d="M27.06,53.89S33.8,45.44,44.26,49" fill="none" stroke="#3055a3" stroke-linecap="round" stroke-linejoin="round" stroke-width="3"/>
    <path id="Path_124" data-name="Path 124" d="M55.27,59.75a7.89,7.89,0,0,1-3.14-6.21,4.72,4.72,0,0,1,7.09-4.18l.09.06" fill="none" stroke="#3055a3" stroke-linecap="round" stroke-linejoin="round" stroke-width="3"/>
    <path id="Path_125" data-name="Path 125" d="M39.81,34.54a8.84,8.84,0,0,1,7.77,8.33" fill="none" stroke="#3055a3" stroke-linecap="round" stroke-linejoin="round" stroke-width="3"/>
    <path id="Path_126" data-name="Path 126" d="M34.39,36.43a16.77,16.77,0,0,1-5.25-4.07" fill="none" stroke="#3055a3" stroke-linecap="round" stroke-linejoin="round" stroke-width="3"/>
    <path id="Path_127" data-name="Path 127" d="M84.18,75.32l2.53-3.13a10.59,10.59,0,0,0-8.24-17.3h0a10.59,10.59,0,0,0-8.08,17.37l23,27.6L100,94,76,65.67a10.4,10.4,0,0,1-2-9.79" fill="none" stroke="#3055a3" stroke-linecap="round" stroke-linejoin="round" stroke-width="3"/>
    <line id="Line_48" data-name="Line 48" y1="17.91" x2="14.68" transform="translate(63.91 82.09)" fill="none" stroke="#3055a3" stroke-linecap="round" stroke-linejoin="round" stroke-width="3"/>
  </g>
</svg>
