<svg xmlns="http://www.w3.org/2000/svg" width="103.116" height="103.044" viewBox="0 0 103.116 103.044">
  <g id="ICON_Pediatrics" transform="translate(1.5 1.544)">
    <path id="Path_105" data-name="Path 105" d="M91.79,5.81,92,7.92a2.48,2.48,0,0,1-2.27,2.68h0A2.48,2.48,0,0,1,87,8.35l-.21-2.12" fill="none" stroke="#3055a3" stroke-linecap="round" stroke-linejoin="round" stroke-width="3"/>
    <path id="Path_106" data-name="Path 106" d="M72.71,2.79l.06-.52A2,2,0,0,0,71,0h0a2,2,0,0,0-2.25,1.75v.32c-6.51-.83-11.05,3.73-8.44,11.6,3.86,11.65,10.08,27,19.51,27s15.65-15.36,19.51-27c2.61-7.87-1.94-12.43-8.44-11.6V1.75A2,2,0,0,0,88.52,0h0a2,2,0,0,0-1.8,2.26l.06.52" fill="none" stroke="#3055a3" stroke-linecap="round" stroke-linejoin="round" stroke-width="3"/>
    <path id="Path_107" data-name="Path 107" d="M67.7,5.81l-.18,2.11a2.48,2.48,0,0,0,2.27,2.68h0a2.48,2.48,0,0,0,2.68-2.27l.18-2.12" fill="none" stroke="#3055a3" stroke-linecap="round" stroke-linejoin="round" stroke-width="3"/>
    <circle id="Ellipse_17" data-name="Ellipse 17" cx="9.46" cy="9.46" r="9.46" transform="translate(30.69 71.29)" stroke-width="3" stroke="#3055a3" stroke-linecap="round" stroke-linejoin="round" fill="none"/>
    <circle id="Ellipse_18" data-name="Ellipse 18" cx="4" cy="4" r="4" transform="translate(36.15 76.75)" stroke-width="3" stroke="#3055a3" stroke-linecap="round" stroke-linejoin="round" fill="none"/>
    <path id="Path_108" data-name="Path 108" d="M79.74,40.7V65.39a10.4,10.4,0,0,0,10.4,10.4c4.59,0,8.62-3.61,8.32-8.32-.26-4.17-3-6.35-6.66-6.66a8.11,8.11,0,0,0-7.26,3.73" fill="none" stroke="#3055a3" stroke-linecap="round" stroke-linejoin="round" stroke-width="3"/>
    <circle id="Ellipse_19" data-name="Ellipse 19" cx="26.42" cy="26.42" r="26.42" transform="translate(1.18 11.31)" stroke-width="3" stroke="#3055a3" stroke-linecap="round" stroke-linejoin="round" fill="none"/>
    <path id="Path_109" data-name="Path 109" d="M31.59,84.77A16.89,16.89,0,0,1,13,59.79" fill="none" stroke="#3055a3" stroke-linecap="round" stroke-linejoin="round" stroke-width="3"/>
    <path id="Path_110" data-name="Path 110" d="M42.15,59.79a16.94,16.94,0,0,1,1.91,12.35" fill="none" stroke="#3055a3" stroke-linecap="round" stroke-linejoin="round" stroke-width="3"/>
    <path id="Path_111" data-name="Path 111" d="M45.86,56.82A17,17,0,0,1,55.2,72V83a17,17,0,0,1-17,17H17A17,17,0,0,1,0,83V72A17,17,0,0,1,9.343,56.818" fill="none" stroke="#3055a3" stroke-linecap="round" stroke-linejoin="round" stroke-width="3"/>
    <circle id="Ellipse_20" data-name="Ellipse 20" cx="5.78" cy="5.78" r="5.78" transform="translate(21.82 46.74)" stroke-width="3" stroke="#3055a3" stroke-linecap="round" stroke-linejoin="round" fill="none"/>
    <path id="Path_112" data-name="Path 112" d="M26.1,11.38c4.9,0,7.9,4.23,7.9,8.78a7.07,7.07,0,0,1-7.07,7.07,5.65,5.65,0,0,1-5.65-5.65,4.52,4.52,0,0,1,4.52-4.52,3.62,3.62,0,0,1,3.62,3.62" fill="none" stroke="#3055a3" stroke-linecap="round" stroke-linejoin="round" stroke-width="3"/>
    <path id="Path_113" data-name="Path 113" d="M78,75.08C71.25,84.58,60.05,88,48.81,84.57" fill="none" stroke="#3055a3" stroke-linecap="round" stroke-linejoin="round" stroke-width="3"/>
    <path id="Path_114" data-name="Path 114" d="M19.23,39.1a4.68,4.68,0,0,0-9.31,0" fill="none" stroke="#3055a3" stroke-linecap="round" stroke-linejoin="round" stroke-width="3"/>
    <path id="Path_115" data-name="Path 115" d="M45.28,39.1a4.68,4.68,0,0,0-9.31,0" fill="none" stroke="#3055a3" stroke-linecap="round" stroke-linejoin="round" stroke-width="3"/>
  </g>
</svg>
