<svg xmlns="http://www.w3.org/2000/svg" width="103.001" height="103.363" viewBox="0 0 103.001 103.363">
  <g id="ICON_Mammology" transform="translate(1.501 1.525)">
    <path id="Path_75" data-name="Path 75" d="M56.43.24c-.17.85-2.65,10.45-28.25,23.19A65.67,65.67,0,0,0,9.06,37.11l-.68-.47a5.58,5.58,0,0,0-7.31.89,4.44,4.44,0,0,0,1,6.63L3.33,45c-6.71,12.78-1.49,28.39,12,35.57A29.39,29.39,0,0,0,29.54,84,46.14,46.14,0,0,0,42.63,72" fill="none" stroke="#3055a3" stroke-linecap="round" stroke-linejoin="round" stroke-width="3"/>
    <path id="Path_76" data-name="Path 76" d="M29.54,84a30.86,30.86,0,0,0,0,16" fill="none" stroke="#3055a3" stroke-linecap="round" stroke-linejoin="round" stroke-width="3"/>
    <line id="Line_30" data-name="Line 30" x2="2.99" y2="2.33" transform="translate(9.06 37.11)" fill="none" stroke="#3055a3" stroke-linecap="round" stroke-linejoin="round" stroke-width="3"/>
    <path id="Path_77" data-name="Path 77" d="M83.94,100V85.46A25.16,25.16,0,0,1,91.5,67.57" fill="none" stroke="#3055a3" stroke-linecap="round" stroke-linejoin="round" stroke-width="3"/>
    <path id="Path_78" data-name="Path 78" d="M66.34,31.48A49.56,49.56,0,0,1,62,24.61a12,12,0,0,1-.17-10.56L67,3.09" fill="none" stroke="#3055a3" stroke-linecap="round" stroke-linejoin="round" stroke-width="3"/>
    <path id="Path_79" data-name="Path 79" d="M88.99,39.63,100,53.5l-9.71,8.12L80.87,49.8" fill="none" stroke="#3055a3" stroke-linecap="round" stroke-linejoin="round" stroke-width="3"/>
    <path id="Path_80" data-name="Path 80" d="M88.42,3.09l5.13,11a12,12,0,0,1-.17,10.56,60.85,60.85,0,0,1-7,10.24L65.09,61.62,55.38,53.5,77.45,25.7C86.05,15.09,88.3,8.59,88.7,5.07A3.93,3.93,0,0,0,85.7.8,30.43,30.43,0,0,0,78.61,0H76.77a30.43,30.43,0,0,0-7.12.79,3.92,3.92,0,0,0-3,4.27C67,8.13,68.39,13,74.45,21.2" fill="none" stroke="#3055a3" stroke-linecap="round" stroke-linejoin="round" stroke-width="3"/>
    <path id="Path_81" data-name="Path 81" d="M86.4,12.2a63.318,63.318,0,0,0-8.71-.76A63.32,63.32,0,0,0,69,12.2" fill="none" stroke="#3055a3" stroke-linecap="round" stroke-linejoin="round" stroke-width="3"/>
  </g>
</svg>
