<svg xmlns="http://www.w3.org/2000/svg" width="103" height="103" viewBox="0 0 103 103">
  <g id="ICON_Anesthesiology" transform="translate(1.5 1.5)">
    <path id="Path_1" data-name="Path 1" d="M23.63,67A23.94,23.94,0,0,1,5.31,67V28.45H23.63Z" fill="none" stroke="#3055a3" stroke-linecap="round" stroke-linejoin="round" stroke-width="3"/>
    <path id="Path_2" data-name="Path 2" d="M9.61,68.35V80.84a12.7,12.7,0,0,0,9.72,0V68.35a23.91,23.91,0,0,1-9.72,0Z" fill="none" stroke="#3055a3" stroke-linecap="round" stroke-linejoin="round" stroke-width="3"/>
    <line id="Line_1" data-name="Line 1" y2="18.19" transform="translate(14.47 81.81)" fill="none" stroke="#3055a3" stroke-linecap="round" stroke-linejoin="round" stroke-width="3"/>
    <path id="Path_3" data-name="Path 3" d="M25.88,28.45H3.05A3.05,3.05,0,0,1,0,25.4H0a3.05,3.05,0,0,1,3.05-3.05H25.88a3.05,3.05,0,0,1,3.05,3.05h0a3.05,3.05,0,0,1-3.05,3.05Z" fill="none" stroke="#3055a3" stroke-linecap="round" stroke-linejoin="round" stroke-width="3"/>
    <path id="Path_4" data-name="Path 4" d="M19.78,6.11H9.15A3.05,3.05,0,0,1,6.1,3.05h0A3.05,3.05,0,0,1,9.15,0H19.78a3.05,3.05,0,0,1,3.05,3.05h0a3.05,3.05,0,0,1-3.05,3.06Z" fill="none" stroke="#3055a3" stroke-linecap="round" stroke-linejoin="round" stroke-width="3"/>
    <rect id="Rectangle_1" data-name="Rectangle 1" width="9.12" height="16.24" transform="translate(9.91 6.11)" stroke-width="3" stroke="#3055a3" stroke-linecap="round" stroke-linejoin="round" fill="none"/>
    <line id="Line_2" data-name="Line 2" x2="5.67" transform="translate(5.31 35.56)" fill="none" stroke="#3055a3" stroke-linecap="round" stroke-linejoin="round" stroke-width="3"/>
    <line id="Line_3" data-name="Line 3" x2="5.67" transform="translate(5.31 42.75)" fill="none" stroke="#3055a3" stroke-linecap="round" stroke-linejoin="round" stroke-width="3"/>
    <line id="Line_4" data-name="Line 4" x2="5.67" transform="translate(5.31 49.94)" fill="none" stroke="#3055a3" stroke-linecap="round" stroke-linejoin="round" stroke-width="3"/>
    <path id="Path_5" data-name="Path 5" d="M46.58,60.44a10.08,10.08,0,0,1-.66-4.92c.22-2.43.15-5,.14-7.29a48.819,48.819,0,0,0-.6-7.18,4.77,4.77,0,0,0-1.12-2.75,2.62,2.62,0,0,0-4.34,0,4.77,4.77,0,0,0-1.12,2.75,48.83,48.83,0,0,0-.6,7.18c0,2.25-.08,4.86.14,7.29a10.07,10.07,0,0,1-.66,4.92,30.66,30.66,0,0,0-2.5,12V100H49.08V72.44a30.66,30.66,0,0,0-2.5-12Z" fill="none" stroke="#3055a3" stroke-linecap="round" stroke-linejoin="round" stroke-width="3"/>
    <path id="Path_6" data-name="Path 6" d="M97.5,60.44a10.08,10.08,0,0,1-.66-4.92c.22-2.43.14-5,.14-7.29a49,49,0,0,0-.6-7.18,4.78,4.78,0,0,0-1.12-2.75,2.62,2.62,0,0,0-4.34,0,4.77,4.77,0,0,0-1.12,2.75,49,49,0,0,0-.6,7.18c0,2.25-.08,4.86.14,7.29a10.07,10.07,0,0,1-.66,4.92,30.68,30.68,0,0,0-2.5,12V100H100V72.44a30.65,30.65,0,0,0-2.5-12Z" fill="none" stroke="#3055a3" stroke-linecap="round" stroke-linejoin="round" stroke-width="3"/>
    <path id="Path_7" data-name="Path 7" d="M72,60.44a10.08,10.08,0,0,1-.66-4.92c.22-2.43.14-5,.14-7.29a49,49,0,0,0-.6-7.18,4.78,4.78,0,0,0-1.12-2.75,2.62,2.62,0,0,0-4.34,0,4.77,4.77,0,0,0-1.12,2.75,49,49,0,0,0-.6,7.18c0,2.25-.08,4.86.14,7.29a10.07,10.07,0,0,1-.66,4.92,30.68,30.68,0,0,0-2.5,12V100H74.54V72.44a30.65,30.65,0,0,0-2.54-12Z" fill="none" stroke="#3055a3" stroke-linecap="round" stroke-linejoin="round" stroke-width="3"/>
  </g>
</svg>
