<svg xmlns="http://www.w3.org/2000/svg" width="102.985" height="103.056" viewBox="0 0 102.985 103.056">
  <g id="ICON_Urology" transform="translate(1.492 1.515)">
    <path id="Path_159" data-name="Path 159" d="M46.3,48.45a39,39,0,0,0-9-6.43c-2.36-1.24-5.13,1.07-3.69,3.08a34.57,34.57,0,0,1,6.85,20.07V82.83A13.63,13.63,0,0,0,42,88.48" fill="none" stroke="#3055a3" stroke-linecap="round" stroke-linejoin="round" stroke-width="3"/>
    <path id="Path_160" data-name="Path 160" d="M54,48.45A39,39,0,0,1,63,42c2.37-1.24,5.13,1.07,3.69,3.08a34.57,34.57,0,0,0-6.85,20.07V82.83a13.63,13.63,0,0,1-1.56,5.65" fill="none" stroke="#3055a3" stroke-linecap="round" stroke-linejoin="round" stroke-width="3"/>
    <path id="Path_161" data-name="Path 161" d="M58.31,88.48l1.86,1.6a4,4,0,0,1,.54,5.8c-2.08,2.46-5.44,5.14-9.49,3.74a3.23,3.23,0,0,0-2.1,0c-4.05,1.41-7.41-1.28-9.49-3.74a4,4,0,0,1,.54-5.8L42,88.48" fill="none" stroke="#3055a3" stroke-linecap="round" stroke-linejoin="round" stroke-width="3"/>
    <path id="Path_162" data-name="Path 162" d="M25.35,11.14S19.78,26.4,36.89,31.65c0,0,1.1,7.24,13.27,7.24" fill="none" stroke="#3055a3" stroke-linecap="round" stroke-linejoin="round" stroke-width="3"/>
    <path id="Path_163" data-name="Path 163" d="M75,11.14l.7-1.72C77.83,4.13,83.51.29,90.14,0c3.73-.15,7.34.87,9.17,4.62,3.94,8.08-10,13-13.72,33.47-1.47,8.15,4.05,16.48,6.7,24.42.44,1.33,4.51,9.92,3.37,17.6" fill="none" stroke="#3055a3" stroke-linecap="round" stroke-linejoin="round" stroke-width="3"/>
    <path id="Path_164" data-name="Path 164" d="M75.52,78.55c-2,5.89.8,11.71,6.19,13S93.06,89.06,95,83.17s-.8-11.71-6.19-13S77.49,72.66,75.52,78.55Z" fill="none" stroke="#3055a3" stroke-linecap="round" stroke-linejoin="round" stroke-width="3"/>
    <path id="Path_165" data-name="Path 165" d="M75,11.14S80.54,26.4,63.43,31.65c0,0-1.1,7.24-13.27,7.24" fill="none" stroke="#3055a3" stroke-linecap="round" stroke-linejoin="round" stroke-width="3"/>
    <path id="Path_166" data-name="Path 166" d="M75,11.14a47.07,47.07,0,0,0-24.81-7.6h0a47.07,47.07,0,0,0-24.81,7.6" fill="none" stroke="#3055a3" stroke-linecap="round" stroke-linejoin="round" stroke-width="3"/>
    <path id="Path_167" data-name="Path 167" d="M25,11.14l-.7-1.72C22.17,4.13,16.49.29,9.86,0,6.13-.14,2.52.88.69,4.63c-3.94,8.08,10,13,13.72,33.47,1.47,8.15-4.05,16.48-6.7,24.42-.44,1.33-4.51,9.92-3.37,17.6" fill="none" stroke="#3055a3" stroke-linecap="round" stroke-linejoin="round" stroke-width="3"/>
    <path id="Path_168" data-name="Path 168" d="M24.48,78.55c2,5.89-.8,11.71-6.19,13S6.94,89.06,5,83.17s.8-11.71,6.19-13S22.51,72.66,24.48,78.55Z" fill="none" stroke="#3055a3" stroke-linecap="round" stroke-linejoin="round" stroke-width="3"/>
    <path id="Path_169" data-name="Path 169" d="M33.19,7A33.25,33.25,0,0,1,47.58,19.89a3.15,3.15,0,0,0,5.15,0A33.24,33.24,0,0,1,67.13,7" fill="none" stroke="#3055a3" stroke-linecap="round" stroke-linejoin="round" stroke-width="3"/>
  </g>
</svg>
