<svg xmlns="http://www.w3.org/2000/svg" width="103.07" height="103.026" viewBox="0 0 103.07 103.026">
  <g id="ICON_Nephrology" transform="translate(1.53 1.517)">
    <path id="Path_90" data-name="Path 90" d="M73.64,68.94c-5.88-.73-9.38,3.37-11.3,7A17.57,17.57,0,0,0,60.62,87.8a14.79,14.79,0,0,0,7,9.68,17.4,17.4,0,0,0,12.45,2.15c9.16-1.79,14.18-10.09,16.88-17.58a53.44,53.44,0,0,0,2.29-26.92c-1.67-9.89-5.66-15.68-9.13-19a15.89,15.89,0,0,0-12.95-4.42,12.34,12.34,0,0,0-6.57,2.85A9.71,9.71,0,0,0,67.4,41c-.1,2.33.87,5.87,5.76,5.87" fill="none" stroke="#3055a3" stroke-linecap="round" stroke-linejoin="round" stroke-width="3"/>
    <path id="Path_91" data-name="Path 91" d="M55.08,0l.41,35.19a12.84,12.84,0,0,0,1.46,5.87,8.64,8.64,0,0,0,5.38,4.38" fill="none" stroke="#3055a3" stroke-linecap="round" stroke-linejoin="round" stroke-width="3"/>
    <path id="Path_92" data-name="Path 92" d="M26.36,68.94c5.88-.73,9.38,3.37,11.3,7A17.57,17.57,0,0,1,39.38,87.8a14.79,14.79,0,0,1-7,9.68,17.4,17.4,0,0,1-12.45,2.15C10.78,97.87,5.76,89.57,3.06,82.08A53.44,53.44,0,0,1,.77,55.16c1.67-9.89,5.66-15.68,9.13-19a15.89,15.89,0,0,1,12.95-4.42,12.35,12.35,0,0,1,6.57,2.85A9.71,9.71,0,0,1,32.6,41c.1,2.33-.87,5.87-5.76,5.87" fill="none" stroke="#3055a3" stroke-linecap="round" stroke-linejoin="round" stroke-width="3"/>
    <path id="Path_93" data-name="Path 93" d="M44.92,0l-.4,35.19a12.84,12.84,0,0,1-1.46,5.87,8.64,8.64,0,0,1-5.38,4.38" fill="none" stroke="#3055a3" stroke-linecap="round" stroke-linejoin="round" stroke-width="3"/>
    <path id="Path_94" data-name="Path 94" d="M26.36,68.94c9.24,0,14.94-2.92,18.42-6.15a7.56,7.56,0,0,1,10.44,0C58.7,66,64.4,68.94,73.64,68.94" fill="none" stroke="#3055a3" stroke-linecap="round" stroke-linejoin="round" stroke-width="3"/>
    <line id="Line_34" data-name="Line 34" y1="8.87" transform="translate(50 45.44)" fill="none" stroke="#3055a3" stroke-linecap="round" stroke-linejoin="round" stroke-width="3"/>
  </g>
</svg>
