<svg xmlns="http://www.w3.org/2000/svg" viewBox="0 0 99.48 97.52"><defs><style>.cls-1{fill:#3055a3;}</style></defs><title>Asset 14</title><g id="Layer_2" data-name="Layer 2"><g id="TEXTS"><path class="cls-1" d="M72,81.11c1,2.57,1.86,4.46,2.6,6.37.28.74.39,1.55.6,2.32.64,2.35.3,4.55-1.54,6.17a6.55,6.55,0,0,1-6.77,1.08,4.72,4.72,0,0,1-3.48-4.18c-.3-3.48-2.26-5.47-5.34-6.69a34.68,34.68,0,0,1-3.89-1.86A20,20,0,0,1,43.53,70.8c-.45-2-.92-3.46-3-4.49a7,7,0,0,1-3.8-7.64c.29-2-.44-3-2.18-3.53a1.38,1.38,0,0,1-.46-.15,6.42,6.42,0,0,0-7.46-.77c-2.78,1.39-5.32.06-7.42-1.85a3.94,3.94,0,0,0-3.84-1.18c-4.28.86-7.29-.54-8.93-4.41a9,9,0,0,0-3.38-4.35c-3.42-2.36-4-6.52-1.68-10.18a4.56,4.56,0,0,0,.75-3.93c-1-4.29.36-7.17,4.23-9.12a5.46,5.46,0,0,0,3.13-3.78A7.21,7.21,0,0,1,16.64,10,4.18,4.18,0,0,0,20.55,7.9c2-3.3,5.05-4.32,8.67-3.45a3.48,3.48,0,0,0,3.8-1c2.75-2.78,6-3.57,9.6-1.58a3,3,0,0,0,3.51-.28A8.09,8.09,0,0,1,56,1.79a3.34,3.34,0,0,0,3.55.31C63.11.66,66.4,1,69,4.2a2.74,2.74,0,0,0,3,1c4.29-.92,7.6.43,9.57,4.41a3,3,0,0,0,3.06,1.73c3.92.07,6.28,2.27,7.11,5.91a5.38,5.38,0,0,0,2.77,4c3.67,2.15,4.7,5.39,3.29,9.46a4.31,4.31,0,0,0,.24,4c2.28,4.08,2,6.51-1.24,9.92a4.36,4.36,0,0,0-1.38,3.75c.33,4.38-1.9,7.2-6.31,8.24-1.28.3-2.44.34-3,1.82-1.47,3.69-4.5,4.88-8.14,4.41a6.23,6.23,0,0,0-5.61,1.6,6.81,6.81,0,0,1-8,1.22,3.57,3.57,0,0,0-4.36.42A22.46,22.46,0,0,1,57,67.8a1.78,1.78,0,0,0-.72,2.79,5.84,5.84,0,0,0,1.58,1.76A44.33,44.33,0,0,0,68.62,77.5c9,2.64,20.3-3.7,21.65-14.27A19.67,19.67,0,0,1,90.91,60c.08-.27.78-.44,1.21-.48.21,0,.59.36.65.61A6.57,6.57,0,0,1,93,62,19.78,19.78,0,0,1,77.55,80C75.85,80.39,74.13,80.68,72,81.11ZM27.29,6.82c-3.7-.08-5.7,2.54-4.31,5.89a6.57,6.57,0,0,1-.54,6.79,13.24,13.24,0,0,0-.84,1.17,3.44,3.44,0,0,0,.67,4.74c1.24,1.23,2.61,1.4,4.36.47a28.78,28.78,0,0,1,2.9-1.65,5.78,5.78,0,0,1,7.19,3.13A6,6,0,0,1,34,35.13c-.3.14-.89-.18-1.26-.42a.88.88,0,0,1-.18-.85c.57-.93,1.34-1.76,1.84-2.74a3.19,3.19,0,0,0-.82-3.91,2.89,2.89,0,0,0-3.91-.47c-.69.4-1.28,1-2,1.35a5.74,5.74,0,0,1-7.08-.69A6,6,0,0,1,19.13,20c.51-1,1.27-1.84,1.75-2.84a3.16,3.16,0,0,0-1-3.87,5.57,5.57,0,0,0-7,1.1c-1.17,1.34-1.22,2.89-1.19,4.5a1.81,1.81,0,0,1-1.61,2,14.44,14.44,0,0,0-2.77.71,4.73,4.73,0,0,0-2.77,5.5,6.79,6.79,0,0,0,.72,1.77,2.51,2.51,0,0,1-.76,3.73,4.37,4.37,0,0,0-1.92,2.65c-.5,2.35.31,4.24,2.86,5.42,1.71.79,2.78,1.46,3,3.67.41,3.67,3,5.08,6.58,4.19.45-.11.87-.4,1.32-.55,2.06-.72,2.06-.71,3.49,1.12.1.13.17.28.26.4,2.25,2.83,4.48,3.28,7.5,1.58.95-.54,1.54-1.73,2.8-1.7s1.77,1.25,2.6,1.95a6,6,0,0,0,5.29,1.49c2.77-.52,2.88-.4,4.15,2.46.89,2,2.07,3.72,4.36,4,1.86.22,2.58,1.22,3.41,2.77,2.62,5,6.93,3.71,9.24.74a3,3,0,0,0-1.28-4.72c-.88-.33-1.89-.32-2.8-.61a5.72,5.72,0,0,1-4.06-7.1,6.1,6.1,0,0,1,7.49-4.25c.26.07.63.44.62.65,0,.42-.18,1.08-.46,1.19a37.73,37.73,0,0,0-3.59,1.19,3.06,3.06,0,0,0,0,5.46,3.48,3.48,0,0,0,1.29.59c3.78.28,5.66,2.51,6.43,6a3.12,3.12,0,0,0,2.78,2.33,5.47,5.47,0,0,0,5.62-1.8c.4-.5.76-1,1.16-1.53a2.17,2.17,0,0,1,2.54-.8c.46.15.87.44,1.33.56,4.12,1.16,5.94.28,7.41-3.65.84-2.24.8-2.28,2.93-2.23a10.17,10.17,0,0,0,1.91,0,5,5,0,0,0,4-4.21A2.32,2.32,0,0,0,91,47.07c-.31-.07-.64,0-1-.1-3.57-.52-5.78-2.49-6.39-6.12a8.31,8.31,0,0,0-.3-1.4A3.45,3.45,0,0,0,80.14,37a3.66,3.66,0,0,0-3.69,2.5c-.36,1-.38,2.23-.84,3.23-1.73,3.78-6.33,5.29-9.79,1.45a6.17,6.17,0,0,1-1.22-5.86c.08-.31.7-.56,1.11-.65.19-.05.63.28.71.52a31,31,0,0,0,1,3.64,3.07,3.07,0,0,0,3.15,1.75,3,3,0,0,0,2.8-2.23c.29-.91.35-1.89.68-2.78A6.22,6.22,0,0,1,86,38.85c.29.91.42,1.87.67,2.8a3.13,3.13,0,0,0,1.9,2,6.23,6.23,0,0,0,7-1.42c1.44-1.65,1.53-4,.22-6.26a4.87,4.87,0,0,0-.86-1.15c-1.46-1.33-1.26-2.43-.16-4.09,2.15-3.22,1-6.13-2.63-7.6a7,7,0,0,0-.93-.23,2.16,2.16,0,0,1-1.9-2.36,13.6,13.6,0,0,0,0-2.39c-.43-2.73-2.54-4.33-5.5-4.26-3.52.09-5.15,1.45-5.52,4.62a20.39,20.39,0,0,1-.32,2.84,5.43,5.43,0,0,1-6.21,4.06c-3.5-.47-5.54-3-5.34-6.73a1.12,1.12,0,0,1,.5-.73.9.9,0,0,1,1.25.33c.77,1,.68,2.47,1.71,3.37a3.57,3.57,0,0,0,3.48,1.11A2.79,2.79,0,0,0,75.57,20a9.16,9.16,0,0,1,3.05-7.72c.85-.77.61-1.75,0-2.58a4.28,4.28,0,0,0-2.74-1.79,4.65,4.65,0,0,0-2.36-.08c-3.1,1.42-5.31,1-6.92-2.32C65.85,4,64,3.75,62.33,3.89a5.22,5.22,0,0,0-3,1.29c-1.83,1.56-2.61,1.23-4-.34a7.63,7.63,0,0,0-1.82-1.53,5.24,5.24,0,0,0-6.54,1.08c-1.49,1.83-1.53,6.8-.06,8.62a3.37,3.37,0,0,0,2,1.26,14.26,14.26,0,0,1,2.79.59A6.12,6.12,0,0,1,53.33,25.4,10,10,0,0,1,49,27.1a3.24,3.24,0,0,0-1.83,5.25c.77,1,1.88,1.07,3,1.14s1.94.25,2.23,1.39c.21.84-.9,1.21-2.66,1.24a6,6,0,0,1-6-5.68c-.18-3,1.53-5.07,5-6a14.35,14.35,0,0,0,2.3-.59,3.41,3.41,0,0,0,2-3.49,3.24,3.24,0,0,0-2.05-3,17.27,17.27,0,0,0-2.31-.54c-3.46-.91-5.19-2.91-5.44-6.37-.07-1,0-1.92,0-2.87A3.73,3.73,0,0,0,39.78,3.7a4.74,4.74,0,0,0-5.11,1.78c-.28.39-.49.83-.78,1.21C32.51,8.54,32.4,8.63,30.4,7.75A6.63,6.63,0,0,0,27.29,6.82ZM46.48,65.5c-.84,3.73-.85,4.17.09,6.88a16.19,16.19,0,0,0,7.53,8.93c2.21,1.26,4.54,2.31,6.81,3.47A8,8,0,0,1,65.63,91a11.25,11.25,0,0,0,.18,1.42c.55,1.93,2.29,2.81,4.57,2.34a3.18,3.18,0,0,0,2.5-3.55,10,10,0,0,0-.33-1.87A15.87,15.87,0,0,0,63.6,78.17c-1.86-.91-3.76-1.73-5.61-2.67a8.9,8.9,0,0,1-4.68-5.19c-.57-1.75-1.75-2.86-2.91-4.19-2.1-2.41-4.14-4.69-7.21-5.85-.56-.21-.94-.84-1.42-1.26s-1-1.35-2-1c-.67.26-1,1.46-.69,2.54a5.26,5.26,0,0,0,3.77,3.93C44.08,64.86,45.48,64.5,46.48,65.5Z"/></g></g></svg>