<svg xmlns="http://www.w3.org/2000/svg" viewBox="0 0 99.33 98.87"><defs><style>.cls-1{fill:#3055a3;}</style></defs><title>Asset 12</title><g id="Layer_2" data-name="Layer 2"><g id="TEXTS"><path class="cls-1" d="M56.53,30.78c-.21.24-.61.47-.61.71,0,6.55.09,13.11.15,19.66q0,.72.06,1.44c.13,1.49.84,2,2.19,1.59,1.06-.3,1.94-1.19,3.13-1,.29,0,.74.19.8.39.12.42.22,1,0,1.32-1.15,1.39-2.88,1.93-4.45,2.69a2.77,2.77,0,0,0-1.69,2.66q0,8.63,0,17.26c0,.66.26,1.31,1,1.42a1.78,1.78,0,0,0,1.28-.39c1.53-1.4,3-2.9,4.5-4.31a4.9,4.9,0,0,1,1.63-.9c.23-.09.61.09.87.25a.87.87,0,0,1,.32,1.24,20,20,0,0,1-1.47,1.86c-1.52,1.85-1.53,1.87.68,3.25.63.4,1,.89.68,1.53a1.55,1.55,0,0,1-1.08.81c-2.23.13-4.47.11-6.7.23a1.71,1.71,0,0,0-1.68,1.91,8.4,8.4,0,0,0,4,7.7,22.66,22.66,0,0,0,10,3,4,4,0,0,0,3.37-1.49c1.14-1.12,2.27-2.24,3.44-3.32a1.29,1.29,0,0,1,1.73-.2,1.26,1.26,0,0,1,.21,1.72C76.62,96,76.62,96,81.13,96.07c2.24.06,4.48,0,6.71.07A5.94,5.94,0,0,0,93,93.23a16.21,16.21,0,0,0,2.51-6.68,70.87,70.87,0,0,0-.86-29.5A86.26,86.26,0,0,0,88.5,40.46a7.9,7.9,0,0,0-1.83-2.73c-1.12-.93-2,.53-3,.72a1.66,1.66,0,0,1-1.29-.25,1.17,1.17,0,0,1,0-1.7c.32-.37.6-.76.93-1.1a2.61,2.61,0,0,0,.46-3.47c-3.54-6.2-8.32-10.86-15.47-12.65-2.92-.73-5.7-.73-8.19,1.26a4.53,4.53,0,0,1-.4.26c-.78.46-1.55.54-2-.34s.11-1.43.77-2A10,10,0,0,1,66,16.08a21.23,21.23,0,0,1,11.47,4.38,32.14,32.14,0,0,1,7.14,7.72,71.24,71.24,0,0,1,8.12,15.18c2.22,6.16,4.59,12.28,5.63,18.8a73.91,73.91,0,0,1-.54,26.69A16,16,0,0,1,95.35,95a8,8,0,0,1-6.81,3.8c-7.19,0-14.39.11-21.48-1.42a25.92,25.92,0,0,1-7.68-2.6,11,11,0,0,1-5.9-9.28c-.06-1-.06-1.92-.06-2.88v-47c0-.64,0-1.28,0-1.92.07-1.86.08-1.85,2.54-2.3.24,0,.41-.4.61-.61Z"/><path class="cls-1" d="M46,59.3Q46,71,46,82.8a23.17,23.17,0,0,1-.17,3.82c-.91,5.12-4.26,8.08-9,9.62a48.23,48.23,0,0,1-11.26,2.23c-4.61.35-9.26.21-13.89.39s-7.17-2.26-8.86-6A33.61,33.61,0,0,1,.45,82.6,73,73,0,0,1,4.25,50,95.78,95.78,0,0,1,14.85,28.1c3-4.46,6.64-8.15,11.69-10.31a22.5,22.5,0,0,1,6.94-1.71A9.29,9.29,0,0,1,41,18.51c.6.58,1,1.3.35,2.08a1.18,1.18,0,0,1-1.72.18c-3.82-3.1-7.77-2-11.74-.41-6.27,2.56-10.19,7.55-13.21,13.47a20.7,20.7,0,0,1,2.56,3.1,1.73,1.73,0,0,1-.17,1.29c-.09.19-.53.25-.83.33a1.09,1.09,0,0,1-.46-.08c-.9-.23-1.52-1.29-2.6-.93s-1.51,1.56-2,2.54C4.86,52.62,1.68,65.8,2.89,79.91A45.67,45.67,0,0,0,4.34,88.4a18.16,18.16,0,0,0,1.8,4.42,6.29,6.29,0,0,0,5.91,3.41c3-.14,6.06-.16,9.1-.3a1.24,1.24,0,0,0,1.05-2c-.58-.94-1.23-1.84-1.76-2.8-.11-.19.07-.63.24-.86.29-.4.8-.69,1.22-.34a28.29,28.29,0,0,1,3.51,3.22A5.28,5.28,0,0,0,31,94.94a26.27,26.27,0,0,0,7.71-2.49c3.65-2.09,4.91-5.56,4.65-9.93-2.55-.25-5.11-.18-7.67-.21-.82,0-1.68-.1-2-1s.47-1.28,1.18-1.72c1.42-.89,1.49-1.42.6-2.59-.38-.5-.87-.93-1.29-1.41a3.87,3.87,0,0,1-.54-.78.93.93,0,0,1,.21-1.28,1.6,1.6,0,0,1,1.32-.18,26.89,26.89,0,0,1,2.56,2.12c1.19,1,2.35,2.15,3.58,3.16.58.47,1.7-.08,1.86-.83s.37-1.25-.22-1.85A8.41,8.41,0,0,1,41.53,66c2.53-4.67,2.48-7.22,0-8.53-1.41-.73-2.78-1.55-4.11-2.41a1,1,0,0,1-.28-1.28c.23-.45.61-.81,1.13-.65,1.21.36,2.39.85,3.61,1.19a1,1,0,0,0,1.38-.91,26.47,26.47,0,0,0,.21-3.33c0-4.8,0-9.59,0-14.39,0-1,0-1.92.06-2.87a1.59,1.59,0,0,1,1-1.46c.53-.23,1.41.69,1.45,1.55.06,1.28,0,2.55,0,3.83Q46.05,48,46,59.3Z"/><path class="cls-1" d="M56.58,30.83c.68-.23,1.24-.83.88-1.39a32.47,32.47,0,0,0-7-7.15,1.44,1.44,0,0,0-1.79,0,26.36,26.36,0,0,0-2.49,2.24c-2.95,2.93-5.87,5.88-8.82,8.81a13.08,13.08,0,0,1-2.21,1.8,1.53,1.53,0,0,1-1.3-.21.91.91,0,0,1-.26-1.27,23.75,23.75,0,0,1,2.16-2.54C39.91,27,44,22.73,48.39,18.75c-.29-5.22-.18-10.46-.15-15.7A8,8,0,0,1,48.51.71c.1-.32.7-.58,1.12-.68a.94.94,0,0,1,1.14.64A9.62,9.62,0,0,1,51.09,3c0,3.68.23,7.37,0,11a9.38,9.38,0,0,0,3.35,8c3.14,2.95,6.15,6.05,9.18,9.12a22.59,22.59,0,0,1,2.13,2.56.85.85,0,0,1-.3,1.24c-.37.2-1,.35-1.29.15-1.25-1-2.39-2.1-3.6-3.15a17.13,17.13,0,0,0-2.61-2.06c-.61-.34-1.16.2-1.38.88Z"/><path class="cls-1" d="M84.45,63.18c.31,0,.68,0,.91.13A13.52,13.52,0,0,1,89,67a.91.91,0,0,1-.15,1.27,1.61,1.61,0,0,1-1.29.27,10.69,10.69,0,0,1-4-3.89C83.28,64.14,83.91,63.16,84.45,63.18Z"/><path class="cls-1" d="M16.06,64.14c0,.15,0,.35,0,.46a11.55,11.55,0,0,1-4,3.88,1.55,1.55,0,0,1-1.28-.27A.91.91,0,0,1,10.54,67a10.86,10.86,0,0,1,3.66-3.63,1.88,1.88,0,0,1,1.33.09C15.76,63.49,15.89,63.89,16.06,64.14Z"/></g></g></svg>