<svg xmlns="http://www.w3.org/2000/svg" viewBox="0 0 94.94 70"><defs><style>.cls-1{fill:#fff;}</style></defs><title>Asset 19</title><g id="Layer_2" data-name="Layer 2"><g id="TEXTS"><path class="cls-1" d="M94.9,69.94H27V60.42c4-.81,8.07-1.63,12.14-2.43s8-1.61,12.06-2.29a3.32,3.32,0,0,0,2.95-2.62C56.71,45.62,61.41,40,69.44,38.57a37.65,37.65,0,0,1,13,.18c7.15,1.33,12.19,7.86,12.38,15.12C95,59.19,94.9,64.51,94.9,69.94Z"/><path class="cls-1" d="M71.05,0A17.64,17.64,0,1,1,53.32,17.51,17.69,17.69,0,0,1,71.05,0Z"/><path class="cls-1" d="M50.76,47.27c-1.29-5.07-2.56-9.71-3.63-14.4-.41-1.76-1.15-2.29-3-2.27-12,.08-24,0-36,0H5.46c.59,2.54,1.08,4.72,1.62,6.9,1.72,7,3.51,13.9,5.16,20.87.38,1.59,1.1,2.15,2.7,2.05,2.1-.12,4.22,0,6.51,0V70c-2.92,0-5.82.14-8.71,0a3.7,3.7,0,0,1-3.28-3.13Q4.79,48,.19,29.29c-.62-2.51.27-3.51,2.94-3.52q21.63,0,43.26,0c2.74,0,4,1,4.67,3.68.91,3.39,1.66,6.83,2.66,10.19A4,4,0,0,1,53,43.88,28.92,28.92,0,0,0,50.76,47.27Z"/><path class="cls-1" d="M10.76,32.82a9.36,9.36,0,0,1,1.34-.21c9.52,0,19,0,28.55,0a2.27,2.27,0,0,1,1.77,1.07c1.55,5.7,3,11.44,4.42,17.18-1.33.81-2,.73-2.41-.86-.78-3.42-1.64-6.82-2.64-10.18-.2-.69-1.15-1.63-1.76-1.64-8.2-.1-16.39-.06-24.59-.05a6.27,6.27,0,0,0-1.07.27c.53,2.25,1,4.43,1.58,6.61.68,2.77,1.41,5.52,2.07,8.3.42,1.77.62,3.71,3.64,2.62l.12.63c-.36.57-.81,1.67-1.07,1.63-1.37-.23-3.35,1.24-4-1.34-1.26-5.26-2.61-10.49-3.92-15.74C12.15,38.45,11.49,35.76,10.76,32.82Zm19,3.61.45-.81c-.63-.42-1.23-1.08-1.91-1.19a27.08,27.08,0,0,0-3.93-.06H13.78l-.36.72c.52.45,1,1.27,1.57,1.29C19.92,36.48,24.86,36.43,29.8,36.43Zm10.89.14c-.3-2.78-.38-2.84-3-2.28C37.94,37,38.14,37.15,40.69,36.57Z"/><path class="cls-1" d="M41.73,52.38h-5.5c-4.39,0-8.79-.12-13.17,0-2.34.09-2.95-.91-2.76-3.17H32.57c2.12,0,4.25.12,6.36,0S42,49.74,41.73,52.38Z"/><path class="cls-1" d="M18.42,42H28c3.08,0,6.16.12,9.22,0,2.12-.11,3,.63,2.68,3H35.41c-4.69,0-9.37-.12-14,.05C19.16,45.18,18.25,44.45,18.42,42Z"/></g></g></svg>