<svg xmlns="http://www.w3.org/2000/svg" viewBox="0 0 32 32"><defs><style>.cls-1{isolation:isolate;}.cls-2{fill:#fff;}.cls-3{fill:#24407a;opacity:0.8;mix-blend-mode:multiply;}</style></defs><title>Asset 5</title><g class="cls-1"><g id="Layer_2" data-name="Layer 2"><g id="TEXTS"><circle class="cls-2" cx="16" cy="16" r="16"/><path class="cls-3" d="M14.73,10.81h6.39a1.62,1.62,0,0,1,1.57,1,1.53,1.53,0,0,1,.15.63q0,4.34,0,8.67a1.67,1.67,0,0,1-1.7,1.7H15.76a.57.57,0,0,0-.44.18c-1,1-2,2-3,3a.87.87,0,0,1-.86.26A.85.85,0,0,1,11,24.83a2.65,2.65,0,0,1,.29-.29l2.94-2.93a1.14,1.14,0,0,0,.15-.16.92.92,0,0,1,.79-.36h4c.36,0,.73,0,1.1,0,.57,0,.77-.22.78-.79,0-.94,0-1.88,0-2.82,0-1.27,0-2.54,0-3.81a3.66,3.66,0,0,0-.05-.57.58.58,0,0,0-.51-.5,4.21,4.21,0,0,0-.62-.05H9.47a3.18,3.18,0,0,0-.62.06.54.54,0,0,0-.49.5,2.72,2.72,0,0,0,0,.49q0,3.3,0,6.6v.13c0,.48.17.65.64.73a3.82,3.82,0,0,0,.59,0c.72,0,1.45,0,2.17,0a.85.85,0,0,1,.82,1.15.83.83,0,0,1-.77.56c-1.18,0-2.37,0-3.55,0A1.69,1.69,0,0,1,6.6,21.12c0-2.85,0-5.71,0-8.56a1.71,1.71,0,0,1,1.76-1.74h6.38Z"/><path class="cls-3" d="M17.34,8.24H23.7A1.66,1.66,0,0,1,25.29,9.3a1.19,1.19,0,0,1,.1.49c0,2.86,0,5.71,0,8.56a1.62,1.62,0,0,1,0,.22.85.85,0,0,1-1.7,0c0-.69,0-1.38,0-2.07V10.94a1.23,1.23,0,0,0,0-.33c-.09-.44-.22-.56-.68-.62a3.08,3.08,0,0,0-.53,0H11a.86.86,0,0,1-.21-1.7h6.6Z"/></g></g></g></svg>