<svg xmlns="http://www.w3.org/2000/svg" viewBox="0 0 24 24"><defs><style>.cls-1{fill:#3055a3;}.cls-2{fill:#fff;}</style></defs><title>Asset 8</title><g id="Layer_2" data-name="Layer 2"><g id="TEXTS"><circle class="cls-1" cx="12" cy="12" r="12"/><path class="cls-2" d="M11,8.11h4.8A1.24,1.24,0,0,1,17,8.84a1.13,1.13,0,0,1,.11.48c0,2.16,0,4.33,0,6.5a1.25,1.25,0,0,1-1.28,1.27h-4a.42.42,0,0,0-.33.14L9.25,19.46a.64.64,0,0,1-1-.84,2.28,2.28,0,0,1,.22-.22l2.2-2.19.12-.12a.65.65,0,0,1,.58-.27h3c.28,0,.55,0,.83,0s.57-.17.59-.59c0-.7,0-1.41,0-2.11,0-1,0-1.91,0-2.87a3,3,0,0,0,0-.42.43.43,0,0,0-.38-.37,2.38,2.38,0,0,0-.46,0H7.1a3.59,3.59,0,0,0-.46,0,.41.41,0,0,0-.37.37,2.4,2.4,0,0,0,0,.37c0,1.65,0,3.3,0,5v.1c0,.36.12.49.48.55a3.17,3.17,0,0,0,.44,0H8.79a.64.64,0,0,1,.62.86.62.62,0,0,1-.58.42c-.89,0-1.78,0-2.67,0A1.26,1.26,0,0,1,5,15.84V9.42a1.27,1.27,0,0,1,1.31-1.3H11Z"/><path class="cls-2" d="M13,6.18h4.77A1.28,1.28,0,0,1,19,7a1,1,0,0,1,.07.38q0,3.2,0,6.41a1,1,0,0,1,0,.17.64.64,0,0,1-.64.61.65.65,0,0,1-.64-.64V12.36c0-1.39,0-2.77,0-4.15a2,2,0,0,0,0-.25c-.08-.33-.17-.42-.51-.47a2.68,2.68,0,0,0-.4,0H8.21a.64.64,0,0,1-.68-.56.63.63,0,0,1,.52-.71l.22,0Z"/></g></g></svg>