<svg xmlns="http://www.w3.org/2000/svg" viewBox="0 0 24.01 24"><defs><style>.cls-1{fill:#3055a3;}.cls-2{fill:#fff;}</style></defs><title>Asset 5</title><g id="Layer_2" data-name="Layer 2"><g id="TEXTS"><path class="cls-1" d="M12,24A12,12,0,1,1,24,12,12,12,0,0,1,12,24Zm1.16-11.92h1.65c.21,0,.31-.06.33-.28,0-.65.1-1.29.18-1.93.05-.33-.09-.4-.38-.4-.51,0-1,0-1.52,0-.23,0-.31-.08-.3-.29,0-.38,0-.77,0-1.15a.65.65,0,0,1,.66-.67,9.62,9.62,0,0,1,1.2,0c.27,0,.38-.07.37-.36,0-.6,0-1.21,0-1.81,0-.28-.1-.37-.37-.37l-2.28.06a2.57,2.57,0,0,0-2.59,2.38c-.06.64-.05,1.29-.05,1.94,0,.23,0,.35-.32.33s-.59,0-.89,0-.27.08-.27.28c0,.66,0,1.32,0,2,0,.25.1.32.32.31h.73c.42,0,.42,0,.42.41,0,2.13,0,4.25,0,6.38,0,.3.09.42.4.41H12.8c.27,0,.38-.1.37-.37,0-.67,0-1.34,0-2Z"/><path class="cls-2" d="M13.17,12.08V16.9c0,.66,0,1.33,0,2,0,.27-.1.37-.37.37H10.48c-.31,0-.4-.11-.4-.41,0-2.13,0-4.25,0-6.38,0-.43,0-.42-.42-.41H8.94c-.22,0-.33-.06-.32-.31,0-.65,0-1.31,0-2,0-.2.07-.29.27-.28s.6,0,.89,0,.32-.1.32-.33c0-.65,0-1.3.05-1.94a2.57,2.57,0,0,1,2.59-2.38L15,4.81c.27,0,.38.09.37.37,0,.6,0,1.21,0,1.81,0,.29-.1.36-.37.36a9.62,9.62,0,0,0-1.2,0,.65.65,0,0,0-.66.67c0,.38,0,.77,0,1.15,0,.21.07.29.3.29.51,0,1,0,1.52,0,.29,0,.43.07.38.4-.08.64-.13,1.28-.18,1.93,0,.22-.12.29-.33.28Z"/></g></g></svg>