<svg xmlns="http://www.w3.org/2000/svg" viewBox="0 0 32.01 32"><defs><style>.cls-1{fill:#fff;}</style></defs><title>Asset 2</title><g id="Layer_2" data-name="Layer 2"><g id="TEXTS"><path class="cls-1" d="M16,32A16,16,0,1,1,32,16,16,16,0,0,1,16,32Zm1.54-15.89h2.21c.27,0,.41-.08.43-.38.07-.86.14-1.72.26-2.57.06-.44-.13-.54-.51-.53-.68,0-1.36,0-2,0-.3,0-.4-.1-.39-.39,0-.51,0-1,0-1.52a.88.88,0,0,1,.87-.91c.54,0,1.08,0,1.61,0,.35,0,.51-.09.5-.48,0-.8,0-1.61,0-2.41,0-.38-.14-.5-.5-.49L17,6.49a3.44,3.44,0,0,0-3.45,3.18c-.08.86-.06,1.72-.07,2.58,0,.31-.05.47-.42.44s-.79,0-1.18,0-.37.11-.37.38c0,.87,0,1.75,0,2.62,0,.33.14.42.43.42h1c.56,0,.56,0,.56.55q0,4.24,0,8.51c0,.4.12.55.53.55,1,0,2.07,0,3.1,0,.36,0,.5-.13.49-.49,0-.89,0-1.78,0-2.67Z"/></g></g></svg>