<svg xmlns="http://www.w3.org/2000/svg" viewBox="0 0 46 46"><defs><style>.cls-1{fill:#fff;}</style></defs><title>Asset 1</title><g id="Layer_2" data-name="Layer 2"><g id="Layer_1-2" data-name="Layer 1"><path class="cls-1" d="M23,46A23,23,0,1,1,46,23.19,23,23,0,0,1,23,46ZM26.64,6.43l-.09-.2-.74.16c.14.58-.35.79-.62,1.15-.11.14-.16.55-.07.61.63.45.26.87.18,1.42a1,1,0,0,1-.72,1,.49.49,0,0,1-.44-.13A15.85,15.85,0,0,1,23.41,9l-.62.43c-.47.31-.9.11-.95-.44a3.21,3.21,0,0,1-.07-.68c0-.2.14-.5.29-.57a4.17,4.17,0,0,0,2-2.36A1.88,1.88,0,0,1,25.82,4.3,3.18,3.18,0,0,1,27,4.63c.77.24,1.53.47,2.28.75.15,0,.22.3.32.46a1.49,1.49,0,0,1-.52.16,4.3,4.3,0,0,1-.81-.16,5.7,5.7,0,0,0,.66.71,4.34,4.34,0,0,0,.73.42l.07-.12-.48-.32,0-.1.73.21c-.77-.58.33-.7.24-1.08l.39.07c-.13-1.09.86-.47,1.15-.88l-.32-.36.86.2L30.61,3.32l.05-.09.67.27.08-.22-3.07-1.1-.13.21,2.2,1.77a3.39,3.39,0,0,1-1.32-.72,4.69,4.69,0,0,0-3.5-1.73,7.28,7.28,0,0,1-1-.08c-.55-.08-1,0-1,.84-.29-.32-.48-.53-.67-.72s-.18-.19-.26-.18c-1,.08-2-.1-2.77.67a8.23,8.23,0,0,1-1.39,1c-.43.27-.91.45-1.07,1,0,0-.29,0-.42.07a.67.67,0,0,0-.28.22c-.05.07,0,.23-.06.25-.34.15-.68.28-1,.4s-.89.28-1.31.45-1,.43-1.42.67a6.76,6.76,0,0,0-1,.63c-.65.54-1.26,1.12-2,1.76-.05-.33-.2-.62-.11-.81.7-1.65,2.28-2.49,3.55-3.6A14.52,14.52,0,0,1,15,3.21a12.81,12.81,0,0,0-3.92,2c-.8.62-1.55,1.3-2.31,2S7.44,8.39,6.77,9a.87.87,0,0,0-.09.17l.34,0c0,.1-.09.16-.12.23-.24.58-.73,1-.78,1.73C6,12.19,5.41,12.63,4.35,13c-.31.1-.46.75-.64,1.17a1.1,1.1,0,0,0,0,.53s.09,0,.16.06c-.44.61-1.13.95-1.38,1.76a22.61,22.61,0,0,0-.79,9.46,7.09,7.09,0,0,0,1.43,3.93c.12.13.22.33.37.39.93.34,1.22,1.16,1.57,1.95a.45.45,0,0,0,.2.23c1.12.58,2.24,1.16,3.37,1.72a1.45,1.45,0,0,1,.83,1.58,1.74,1.74,0,0,0,.28,1.47c.38.56.66,1.19,1,1.82-.46.15-.54.46-.29.72a11.26,11.26,0,0,0,2.11,2,19.21,19.21,0,0,0,10.09,2.69c9.23-.16,15.85-4.48,19.89-12.74a7.42,7.42,0,0,0,.76-2.11c.2-1.5.24-3,.35-4.54l-.19,0-.78-1.83c-.83,0-1.68.35-2.14-.67a.62.62,0,0,1-1-.09,10.27,10.27,0,0,0-.7-.78,2.2,2.2,0,0,0-.53-.27c0,.18-.09.38,0,.53A9.42,9.42,0,0,0,39,23.13c0,.06.21,0,.32,0l.07.58c.68.27.84-.29,1-.56a5.85,5.85,0,0,1,.72.79,1,1,0,0,1,.2.7,3.61,3.61,0,0,1-.83,1.41A19.19,19.19,0,0,1,38,27.81a5.27,5.27,0,0,1-1.18.4l-.13-.84a4.15,4.15,0,0,0-.14-.88c-.31-.81-1.15-1.35-1.18-2.31a.4.4,0,0,0-.08-.16c-.35-.48-.73-.94-1-1.44s-.43-.4-.73-.13a9.63,9.63,0,0,0,.82,1.85,3.32,3.32,0,0,1,.56,1,13.49,13.49,0,0,0,.81,1.88c0,.09.22.12.29.21a8.2,8.2,0,0,1,.71,1,2.54,2.54,0,0,1,.21.68L39,28.5a6.58,6.58,0,0,1-1.93,3.09l-2.32,1.88a2.9,2.9,0,0,0-1.07,2.18c0,.91-.3,1.82-1.16,2.05-1.47.39-1.75,2-3,2.53-.05,0-.06.11-.1.15A5.4,5.4,0,0,1,26.33,42c-.32,0-.71.17-.94,0s-.11-.55-.18-.84S25,40.4,24.84,40s-.34-1-.48-1.54a1.57,1.57,0,0,1-.08-.85,6.53,6.53,0,0,1,.6-.95,1.22,1.22,0,0,0,.12-.54,1.35,1.35,0,0,0-.11-.52,5.25,5.25,0,0,0-.75-1.56c-.73-.76-.81-.79-.45-1.8.27-.73,0-1-.77-1-.29,0-.78,0-.87-.16a1,1,0,0,0-1.47-.45,5.77,5.77,0,0,1-2.53.36c-.35,0-.77.29-1.05.19a4.77,4.77,0,0,1-2.29-1.5,2.7,2.7,0,0,0-.45-.55c-.94-.67-1.62-1.42-1-2.68a1.13,1.13,0,0,0,0-.65c-.15-.6-.36-1.16.11-1.76s.93-1.53,1.84-1.9a1,1,0,0,0,.67-1,1.56,1.56,0,0,1,.51-.89,14.42,14.42,0,0,1,1.24-1c.47,0,1.1.28,1.5.07a7.6,7.6,0,0,1,3.1-.68c.44,0,.87-.11,1.31-.11.19,0,.54.13.55.22a9,9,0,0,1-.08,1.27l1.21.29c.35.09.79,0,1,.5,0,.08.15.13.24.16.36.14.72.25,1.07.39s.53,0,.56-.32c.06-.65.48-.89,1.11-.65s1,.31,1.56.48a8,8,0,0,0,1.76,0c.73.08,1.22.1,1.42-.7,0,0,.07,0,.13,0,.54.69.87,0,1.28-.21.63-.28.46-.85.53-1.42l-1.91.33c0,.05,0-.12-.08-.11a2.65,2.65,0,0,1-1.8,0s-.1.14-.17.16a.49.49,0,0,1-.35,0,4.23,4.23,0,0,1-1-.67,1.77,1.77,0,0,1-.41-.86c-.12-.52-.46-.68-.9-.37a3.31,3.31,0,0,1-.55.24l.72.79-.52.71a1.13,1.13,0,0,1-.36-.22c-.35-.43-.67-.88-1-1.33A.5.5,0,0,1,27.3,17c0-.51-.32-.68-.69-.88l-1.71-1c-.12-.07-.25-.12-.38-.18,0,.16-.13.41-.06.47a11.1,11.1,0,0,0,1.24,1,14.78,14.78,0,0,0,1.29.73l0,.22c-.48-.27-.92-.53-.58.26.05.13-.16.39-.3.56a4.71,4.71,0,0,1-.55.53l-.88-.41a3.4,3.4,0,0,1,.71-.16,4.33,4.33,0,0,0,.66-.3c-.15-.22-.24-.5-.44-.64-.73-.54-1.65-.84-2.18-1.67-.06-.1-.45-.07-.64,0-.42.2-.79.51-1.32.27A.68.68,0,0,0,21,16c0,.62-.48.76-.88,1a1.7,1.7,0,0,0-.44.6c-.09.17-.06.39-.16.55-.48.81-1.45.39-2.09.81,0,0,0,0-.06,0l-1.08-.59a3.07,3.07,0,0,1-.07-.82c.07-.52.24-1,.4-1.69a6.11,6.11,0,0,1,.78-.1c.43,0,.85.05,1.27,0,.22,0,.61-.07.62-.15a1.89,1.89,0,0,0,0-1.11,3.56,3.56,0,0,0-.88-.8c.19-.54,1,.3,1.07-.53.16,0,.36.13.46.06a4.59,4.59,0,0,0,1.35-1.09,1.53,1.53,0,0,1,1.25-.71c.48-.05.45-.26.32-.55-.27-.58-.11-.94.55-1.16,0,.29,0,.54-.06.78s-.11.43,0,.46a1.66,1.66,0,0,0,.63.2,7.48,7.48,0,0,0,.82,0l0,.27c.73-1,1.79-.21,2.67-.56-.85-.57-.89-.69-.43-1.24l.54.29c.06-.65-.27-.68-.65-.55.23-.9,1.18-.34,1.66-.88a2,2,0,0,0-1.07,0,.93.93,0,0,1-1.14-.24c-.25-.37-.5-.9,0-1.35A1.44,1.44,0,0,0,26.64,6.43Zm5.64,8.92c-.16-.18-.38-.32-.37-.44.06-.55-.52-.19-.63-.47a5,5,0,0,0-.41.38.8.8,0,0,0-.22.4c0,.44-.54.87-.07,1.32s.81.25,1.28.14a4.9,4.9,0,0,1,1.38-.13c.42,0,.84.22,1.27.25a1.82,1.82,0,0,0,.67-.22,2.59,2.59,0,0,0-.47-.64c-.46-.33-1-.6-1.37-.85l.16-1-1.14.51v.16L33,15Z"/><path class="cls-1" d="M18.14,13l.6-.56-.44-.15a4.64,4.64,0,0,0,.71-.78.56.56,0,0,0-.2-.53.73.73,0,0,1-.41-.9,2.52,2.52,0,0,1,.54-.75l.58.57-.26.46L20.56,12c0,.42-.3.77-1,.75A10.37,10.37,0,0,0,18.14,13Z"/><path class="cls-1" d="M35.84,36.58A11.41,11.41,0,0,1,32.48,40l-.16-.12c0-.1,0-.24.07-.31.74-.79,1.12-1.93,2.3-2.33a4,4,0,0,0,1-.79Z"/><path class="cls-1" d="M15.25,7.07a10.75,10.75,0,0,1,.6-1s.26,0,.4.06l-.2.16L17.38,6c0,.25,0,.54-.06.61A1.9,1.9,0,0,1,15.25,7.07Z"/><path class="cls-1" d="M16.69,12.42c.12-.49.19-.75.24-1s1-.75,1.23-.58c.06,0,.14.14.13.18-.13.35-.18.79-.43,1A3.51,3.51,0,0,1,16.69,12.42Z"/><path class="cls-1" d="M5.08,14.38,4.36,14l.7-1C5.55,13.46,5,13.9,5.08,14.38Z"/><path class="cls-1" d="M22.9,17.8l.24-.95c.11,0,.31.1.31.16C23.47,17.32,23.65,17.72,22.9,17.8Z"/></g></g></svg>