<svg xmlns="http://www.w3.org/2000/svg" viewBox="0 0 74 74"><defs><style>.cls-1{fill:#264bc1;}</style></defs><title>Asset 1</title><g id="Layer_2" data-name="Layer 2"><g id="Layer_1-2" data-name="Layer 1"><path class="cls-1" d="M37,6A31,31,0,1,1,6,37,31,31,0,0,1,37,6m0-6A37,37,0,1,0,74,37,37,37,0,0,0,37,0Z"/><path class="cls-1" d="M51.37,57a.84.84,0,0,0,.48-.16l.07-.05a14.45,14.45,0,0,0,5-9.7.83.83,0,0,0-.26-.68,17.44,17.44,0,0,0-5.46-3.7,17.94,17.94,0,0,0-7.15-1.24.87.87,0,0,0-.67.36A12.53,12.53,0,0,0,42,44.69,45.54,45.54,0,0,1,35,39a46.23,46.23,0,0,1-5.6-6.8,13,13,0,0,0,2.92-1.49.84.84,0,0,0,.36-.67,17.17,17.17,0,0,0-1.25-7.24,17.61,17.61,0,0,0-3.75-5.53A.83.83,0,0,0,27,17a14.62,14.62,0,0,0-9.81,5.1,1,1,0,0,0-.13.76h0A43,43,0,0,0,51.21,57,.41.41,0,0,0,51.37,57Z"/></g></g></svg>