<svg xmlns="http://www.w3.org/2000/svg" viewBox="0 0 32 32"><defs><style>.cls-1{fill:#fff;}</style></defs><title>Asset 3</title><g id="Layer_2" data-name="Layer 2"><g id="TEXTS"><path class="cls-1" d="M16,0A16,16,0,1,1,0,16,16,16,0,0,1,16,0ZM6.93,23.06a7,7,0,0,0,1.23.73,10.61,10.61,0,0,0,7.76.83,11.16,11.16,0,0,0,5.71-3.73,12.38,12.38,0,0,0,3.11-8.77.28.28,0,0,1,.16-.3,3.62,3.62,0,0,0,1-.88,3,3,0,0,0,.61-1.08,6.93,6.93,0,0,1-2,.62A3.91,3.91,0,0,0,26,8.35a.56.56,0,0,0-.27.11,8.33,8.33,0,0,1-1.56.69c-.32.11-.59.15-.79-.19,0-.05-.08-.07-.12-.11a4.34,4.34,0,0,0-3.23-1,3.28,3.28,0,0,0-3,2,6.55,6.55,0,0,0-.55,3c0,.21-.05.27-.25.23-.38-.07-.76-.12-1.13-.2a11.59,11.59,0,0,1-7-4.28S8.09,8.51,8,8.52a4.94,4.94,0,0,0,1.28,5.82,3.45,3.45,0,0,1-1.81-.53,4.45,4.45,0,0,0,3.23,4.28,3.47,3.47,0,0,1-1.74.15,4,4,0,0,0,3.83,3A8,8,0,0,1,6.93,23.06Z"/></g></g></svg>