<svg xmlns="http://www.w3.org/2000/svg" viewBox="0 0 24 24"><defs><style>.cls-1{fill:#3055a3;}</style></defs><title>Asset 10</title><g id="Layer_2" data-name="Layer 2"><g id="TEXTS"><path class="cls-1" d="M12,0A12,12,0,1,1,0,12,12,12,0,0,1,12,0ZM5.2,17.3a5,5,0,0,0,.92.54,8,8,0,0,0,5.82.63,8.38,8.38,0,0,0,4.28-2.81,9.2,9.2,0,0,0,2.33-6.57.25.25,0,0,1,.13-.23,3,3,0,0,0,.77-.65,2.11,2.11,0,0,0,.45-.82,5,5,0,0,1-1.47.47,2.92,2.92,0,0,0,1.06-1.6.37.37,0,0,0-.2.09,6.79,6.79,0,0,1-1.17.51c-.24.09-.44.11-.59-.14a.34.34,0,0,0-.09-.08A3.28,3.28,0,0,0,15,5.92a2.45,2.45,0,0,0-2.22,1.5,4.94,4.94,0,0,0-.42,2.24c0,.16,0,.2-.19.17l-.84-.15A8.68,8.68,0,0,1,6.1,6.47s0-.08-.11-.08a3.69,3.69,0,0,0,1,4.36,2.54,2.54,0,0,1-1.36-.39A3.32,3.32,0,0,0,8,13.57a2.64,2.64,0,0,1-1.3.11A3,3,0,0,0,9.58,15.9,6,6,0,0,1,5.2,17.3Z"/></g></g></svg>