<svg xmlns="http://www.w3.org/2000/svg" viewBox="0 0 32 32"><defs><style>.cls-1{fill:#fff;}</style></defs><title>Asset 4</title><g id="Layer_2" data-name="Layer 2"><g id="TEXTS"><path class="cls-1" d="M0,16.81V15.18c0-.11.05-.22.06-.33.08-.64.14-1.28.26-1.92A16,16,0,0,1,15.59,0a15.58,15.58,0,0,1,9,2.5,15.74,15.74,0,0,1,7.24,11.2c.08.49.13,1,.19,1.48v1.63c0,.1-.05.2-.06.3a15.22,15.22,0,0,1-2.25,7.12,15.72,15.72,0,0,1-11.4,7.58c-.49.08-1,.13-1.48.19H15.19a2.84,2.84,0,0,0-.31-.06,15.11,15.11,0,0,1-7.06-2.22A15.75,15.75,0,0,1,.18,18.28C.11,17.79.06,17.3,0,16.81Zm16,9.51c2-.09,4-.16,5.95-.26a2.22,2.22,0,0,0,2.3-1.77,4.9,4.9,0,0,0,.15-.92c.05-1.64.1-3.27.1-4.9a11.47,11.47,0,0,0-.23-2,2.11,2.11,0,0,0-2-1.85c-1-.1-2.09-.17-3.14-.2a86.69,86.69,0,0,0-9.12.16,2.2,2.2,0,0,0-2.19,1.62,4.14,4.14,0,0,0-.19,1c-.06,1.65-.11,3.29-.12,4.93a10.9,10.9,0,0,0,.18,1.71,2.27,2.27,0,0,0,2.41,2.2C12.06,26.16,14,26.23,16,26.32ZM10.51,5.77l.09.31c.27.78.53,1.56.81,2.33a7.92,7.92,0,0,1,.53,3.27c0,.49,0,1,0,1.47,0,.09,0,.18,0,.28h1.17v-.35c0-.81,0-1.61,0-2.41a2.44,2.44,0,0,1,.1-.71c.38-1.3.78-2.6,1.17-3.91,0-.09,0-.19.08-.32-.3,0-.56,0-.82,0s-.38.06-.44.33c-.2.86-.44,1.71-.69,2.65-.19-.72-.35-1.35-.53-2-.1-.33-.13-.79-.36-1s-.68,0-1,0Zm10.91,7.66V10.55c0-.85,0-1.7,0-2.56,0-.1-.1-.28-.16-.29a8.74,8.74,0,0,0-.89,0v.38c0,1.24,0,2.48,0,3.72a.75.75,0,0,1-.37.67c-.29.2-.5.1-.53-.25a2.61,2.61,0,0,1,0-.28V8.08c0-.12,0-.24,0-.36h-1c0,1.74,0,3.46,0,5.17,0,.54.49.78,1,.59a3.2,3.2,0,0,0,.61-.37c.08-.06.14-.13.24-.22l0,.54Zm-3.89-2.84h0c0-.47,0-.94,0-1.41a1.57,1.57,0,0,0,0-.3A1.44,1.44,0,0,0,16,7.62a1.36,1.36,0,0,0-1.47,1.24,23.15,23.15,0,0,0,0,3.33A1.39,1.39,0,0,0,16,13.54a1.43,1.43,0,0,0,1.5-1.36A14.06,14.06,0,0,0,17.53,10.59Z"/><path class="cls-1" d="M16.39,16.52h1V19a5.87,5.87,0,0,1,.5-.39.86.86,0,0,1,1.4.58,3.39,3.39,0,0,1,.08.78c0,1.06,0,2.12,0,3.18a1.51,1.51,0,0,1-.06.37.83.83,0,0,1-1.27.59,6.8,6.8,0,0,1-.6-.43l0,.45h-1Zm1,4.73v1.5a.46.46,0,0,0,.46.51c.26,0,.43-.12.49-.42a2.31,2.31,0,0,0,0-.37V20.09a2.76,2.76,0,0,0-.07-.49.38.38,0,0,0-.5-.3c-.23.05-.42.15-.41.45C17.37,20.25,17.36,20.75,17.36,21.25Z"/><path class="cls-1" d="M23.19,21.44h-2c0,.47,0,.89,0,1.32a.49.49,0,0,0,.56.5c.26,0,.42-.2.44-.54,0-.17,0-.33,0-.56h.88c.06,0,.14.1.15.15.12,1.44-.84,2-1.88,1.81a1.37,1.37,0,0,1-1.13-1.38c0-1-.05-2,0-3a1.49,1.49,0,0,1,3,0C23.22,20.31,23.19,20.86,23.19,21.44Zm-2-.84h1a7.66,7.66,0,0,0,0-.83.47.47,0,0,0-.47-.48.48.48,0,0,0-.52.47A7.78,7.78,0,0,0,21.19,20.6Z"/><path class="cls-1" d="M12.52,18.46h1v.39c0,1.28,0,2.56,0,3.84,0,.22-.09.52.27.57a.75.75,0,0,0,.66-.64c0-.62,0-1.25,0-1.87V18.47h1v5.61h-.95l0-.57a2.91,2.91,0,0,1-.23.2,4.29,4.29,0,0,1-.59.39.7.7,0,0,1-1.06-.61,2,2,0,0,1,0-.24Z"/><path class="cls-1" d="M11.13,24.09H10V17.57H8.8v-1h3.5v1H11.13Z"/><path class="cls-1" d="M16.5,10.6c0,.43,0,.87,0,1.31a.69.69,0,0,1-.09.41.54.54,0,0,1-.37.22.51.51,0,0,1-.37-.21.85.85,0,0,1-.1-.45c0-.87,0-1.74,0-2.62,0-.46.17-.67.48-.66s.45.23.46.69V10.6Z"/></g></g></svg>