<svg xmlns="http://www.w3.org/2000/svg" viewBox="0 0 24 24"><defs><style>.cls-1{fill:#3055a3;}.cls-2{fill:#fff;}</style></defs><title>Asset 7</title><g id="Layer_2" data-name="Layer 2"><g id="TEXTS"><path class="cls-1" d="M0,12.61V11.39c0-.09,0-.17,0-.25.07-.48.11-1,.2-1.44A12,12,0,0,1,11.69,0a11.6,11.6,0,0,1,6.73,1.88,11.78,11.78,0,0,1,5.44,8.4c.06.36.09.74.14,1.11v1.22a1.7,1.7,0,0,0,0,.22,11.46,11.46,0,0,1-1.69,5.34,11.83,11.83,0,0,1-8.55,5.69c-.37.06-.74.09-1.11.14H11.39a1.85,1.85,0,0,0-.23,0,11.43,11.43,0,0,1-5.3-1.67A11.82,11.82,0,0,1,.14,13.71C.08,13.35.05,13,0,12.61Zm12,7.13,4.47-.19a1.66,1.66,0,0,0,1.72-1.33,3.29,3.29,0,0,0,.11-.7c0-1.22.08-2.45.08-3.67a9.7,9.7,0,0,0-.17-1.51A1.57,1.57,0,0,0,16.7,11c-.78-.07-1.57-.13-2.36-.15a62.23,62.23,0,0,0-6.83.12,1.67,1.67,0,0,0-1.65,1.22,3.45,3.45,0,0,0-.14.78c0,1.23-.08,2.46-.08,3.7a7,7,0,0,0,.13,1.28,1.71,1.71,0,0,0,1.81,1.65ZM7.88,4.33c0,.08,0,.16.07.23l.6,1.75A5.85,5.85,0,0,1,9,8.76c0,.37,0,.73,0,1.1,0,.07,0,.14,0,.21h.88V9.81c0-.61,0-1.21,0-1.81a2.34,2.34,0,0,1,.08-.53c.29-1,.59-1.95.88-2.93,0-.07,0-.14.06-.24h-.62c-.19,0-.28,0-.33.25-.15.64-.33,1.28-.51,2-.15-.53-.27-1-.4-1.48-.08-.25-.1-.59-.27-.71s-.51,0-.78,0Zm8.18,5.74V7.92c0-.64,0-1.28,0-1.93,0-.07-.07-.21-.12-.21a5,5,0,0,0-.67,0v.29c0,.93,0,1.86,0,2.78a.56.56,0,0,1-.28.51c-.21.15-.37.07-.39-.19a1.55,1.55,0,0,1,0-.22V6.06a2.44,2.44,0,0,0,0-.27h-.75c0,1.3,0,2.59,0,3.88,0,.4.37.58.78.44a2.11,2.11,0,0,0,.45-.28,2,2,0,0,0,.19-.16l0,.4ZM13.15,7.94h0V6.89a.85.85,0,0,0,0-.23A1.07,1.07,0,0,0,12,5.72a1,1,0,0,0-1.11.93,17.25,17.25,0,0,0,0,2.49,1,1,0,0,0,1.11,1,1.06,1.06,0,0,0,1.12-1A9.43,9.43,0,0,0,13.15,7.94Z"/><path class="cls-2" d="M12,19.74l-4.4-.19A1.71,1.71,0,0,1,5.77,17.9a7,7,0,0,1-.13-1.28c0-1.24,0-2.47.08-3.7a3.45,3.45,0,0,1,.14-.78,1.67,1.67,0,0,1,1.65-1.22,62.23,62.23,0,0,1,6.83-.12c.79,0,1.58.08,2.36.15a1.57,1.57,0,0,1,1.49,1.39,9.7,9.7,0,0,1,.17,1.51c0,1.22,0,2.45-.08,3.67a3.29,3.29,0,0,1-.11.7,1.66,1.66,0,0,1-1.72,1.33Zm.32-7.35v5.67H13l0-.34a3.12,3.12,0,0,0,.45.32.62.62,0,0,0,.95-.44,1.26,1.26,0,0,0,0-.27l0-2.39a2.78,2.78,0,0,0-.06-.58.65.65,0,0,0-1-.44,3.51,3.51,0,0,0-.38.29V12.39Zm5.09,3.69c0-.44,0-.85,0-1.26a1.11,1.11,0,0,0-2.22,0c0,.74,0,1.49,0,2.23a1.06,1.06,0,0,0,.86,1c.78.17,1.5-.28,1.4-1.36a.15.15,0,0,0-.11-.11h-.66c0,.17,0,.29,0,.42s-.13.39-.33.41a.38.38,0,0,1-.42-.38c0-.32,0-.64,0-1Zm-8-2.23v3.58a1.11,1.11,0,0,0,0,.19.52.52,0,0,0,.79.45,2.16,2.16,0,0,0,.45-.29l.17-.14,0,.42h.71V13.85h-.72v1.71c0,.47,0,.94,0,1.41,0,.21-.29.5-.49.47s-.21-.26-.21-.42V13.85ZM8.34,18.07V13.16h.89V12.4H6.6v.78h.9v4.89Z"/><path class="cls-2" d="M7.88,4.33l.07,0c.27,0,.6-.1.78,0s.19.46.27.71c.13.47.25,1,.4,1.48.18-.7.36-1.34.51-2,.05-.21.14-.27.33-.25h.62c0,.1,0,.17-.06.24-.29,1-.59,2-.88,2.93A2.34,2.34,0,0,0,9.84,8c0,.6,0,1.2,0,1.81v.26H9c0-.07,0-.14,0-.21,0-.37,0-.73,0-1.1a5.85,5.85,0,0,0-.4-2.45L8,4.56C7.93,4.49,7.91,4.41,7.88,4.33Z"/><path class="cls-2" d="M16.06,10.07h-.78l0-.4a2,2,0,0,1-.19.16,2.11,2.11,0,0,1-.45.28c-.41.14-.77,0-.78-.44,0-1.29,0-2.58,0-3.88h.75a2.44,2.44,0,0,1,0,.27V8.94a1.55,1.55,0,0,0,0,.22c0,.26.18.34.39.19a.56.56,0,0,0,.28-.51c0-.92,0-1.85,0-2.78V5.77a5,5,0,0,1,.67,0c.05,0,.12.14.12.21,0,.65,0,1.29,0,1.93v2.15Z"/><path class="cls-2" d="M13.15,7.94a9.43,9.43,0,0,1,0,1.19,1.06,1.06,0,0,1-1.12,1,1,1,0,0,1-1.11-1,17.25,17.25,0,0,1,0-2.49A1,1,0,0,1,12,5.72a1.07,1.07,0,0,1,1.1.94.85.85,0,0,1,0,.23V7.94Zm-.78,0h0c0-.33,0-.66,0-1s-.12-.51-.34-.51-.36.15-.36.5c0,.65,0,1.31,0,2a.63.63,0,0,0,.07.34A.41.41,0,0,0,12,9.4a.4.4,0,0,0,.28-.16.53.53,0,0,0,.07-.31C12.38,8.6,12.37,8.28,12.37,8Z"/><path class="cls-1" d="M12.3,12.39H13v1.82a3.51,3.51,0,0,1,.38-.29.65.65,0,0,1,1,.44,2.78,2.78,0,0,1,.06.58l0,2.39a1.26,1.26,0,0,1,0,.27.62.62,0,0,1-.95.44,3.12,3.12,0,0,1-.45-.32l0,.34H12.3ZM13,15.94v1.12a.34.34,0,0,0,.35.38c.19,0,.32-.09.36-.31a1.32,1.32,0,0,0,0-.28c0-.59,0-1.19,0-1.78a1.18,1.18,0,0,0-.05-.37.27.27,0,0,0-.37-.22c-.18,0-.32.1-.31.33S13,15.56,13,15.94Z"/><path class="cls-1" d="M17.39,16.08h-1.5c0,.35,0,.67,0,1a.38.38,0,0,0,.42.38c.2,0,.32-.16.33-.41s0-.25,0-.42h.66a.15.15,0,0,1,.11.11c.1,1.08-.62,1.53-1.4,1.36a1.06,1.06,0,0,1-.86-1c0-.74,0-1.49,0-2.23a1.11,1.11,0,0,1,2.22,0C17.41,15.23,17.39,15.64,17.39,16.08Zm-1.5-.63h.76c0-.22,0-.42,0-.62s-.12-.36-.35-.36a.36.36,0,0,0-.39.35A4.37,4.37,0,0,0,15.89,15.45Z"/><path class="cls-1" d="M9.39,13.85h.74V17c0,.16-.06.39.21.42s.49-.26.49-.47c0-.47,0-.94,0-1.41V13.85h.72v4.21h-.71l0-.42-.17.14a2.16,2.16,0,0,1-.45.29.52.52,0,0,1-.79-.45,1.11,1.11,0,0,1,0-.19Z"/><path class="cls-1" d="M8.34,18.07H7.5V13.18H6.6V12.4H9.23v.76H8.34Z"/><path class="cls-1" d="M12.37,8c0,.33,0,.65,0,1a.53.53,0,0,1-.07.31A.4.4,0,0,1,12,9.4a.41.41,0,0,1-.28-.15.63.63,0,0,1-.07-.34c0-.65,0-1.31,0-2,0-.35.13-.51.36-.5s.34.17.34.51,0,.66,0,1Z"/><path class="cls-2" d="M13,15.94c0-.38,0-.75,0-1.13s.13-.29.31-.33a.27.27,0,0,1,.37.22,1.18,1.18,0,0,1,.05.37c0,.59,0,1.19,0,1.78a1.32,1.32,0,0,1,0,.28c0,.22-.17.33-.36.31a.34.34,0,0,1-.35-.38Z"/><path class="cls-2" d="M15.89,15.45a4.37,4.37,0,0,1,0-.63.36.36,0,0,1,.39-.35c.23,0,.33.16.35.36s0,.4,0,.62Z"/></g></g></svg>